/* XPM */
static char *result[] = {
/* columns rows colors chars-per-pixel */
"50 50 115 2 ",
"   c #A14F02",
".  c #A25003",
"X  c #A35103",
"o  c #A45203",
"O  c #A65404",
"+  c #A75504",
"@  c #A75505",
"#  c #A75605",
"$  c #A85605",
"%  c #A95705",
"&  c #A85706",
"*  c #A95706",
"=  c #A95805",
"-  c #A95806",
";  c #AA5806",
":  c #AA5907",
">  c #AB5907",
",  c #AB5A06",
"<  c #AB5A07",
"1  c #AC5B07",
"2  c #AC5A08",
"3  c #AC5B08",
"4  c #AC5B09",
"5  c #AD5B09",
"6  c #AD5C09",
"7  c #AE5C09",
"8  c #AE5D09",
"9  c #AF5E09",
"0  c #AE5D0A",
"q  c #AF5E0A",
"w  c #AF5E0B",
"e  c #B05F0B",
"r  c #B05F0C",
"t  c #B1600C",
"y  c #B2610D",
"u  c #B3620D",
"i  c #B2610E",
"p  c #B3620E",
"a  c #B3620F",
"s  c #B4630F",
"d  c #B5640F",
"f  c #B56410",
"g  c #B66510",
"h  c #B66511",
"j  c #B76611",
"k  c #B76612",
"l  c #B86712",
"z  c #B86713",
"x  c #B96813",
"c  c #BA6913",
"v  c #B96814",
"b  c #BA6914",
"n  c #BB6A14",
"m  c #BB6A15",
"M  c #BB6B15",
"N  c #BC6B15",
"B  c #BC6B16",
"V  c #BC6C16",
"C  c #BD6C16",
"Z  c #BD6D16",
"A  c #BD6C17",
"S  c #BD6D17",
"D  c #BE6D17",
"F  c #BE6E17",
"G  c #BE6D18",
"H  c #BE6E18",
"J  c #BF6E18",
"K  c #BF6F18",
"L  c #BF6E19",
"P  c #BF6F19",
"I  c #C06F18",
"U  c #C06F19",
"Y  c #C06F1A",
"T  c #C07018",
"R  c #C07019",
"E  c #C17119",
"W  c #C0701A",
"Q  c #C1701A",
"!  c #C1711A",
"~  c #C2711A",
"^  c #C2721A",
"/  c #C3721A",
"(  c #C3731A",
")  c #C4741A",
"_  c #C5741A",
"`  c #C5751A",
"'  c #C6751A",
"]  c #C6761A",
"[  c #C7771A",
"{  c #C8781A",
"}  c #C9791A",
"|  c #CA7A1A",
" . c #CB7B1A",
".. c #CC7C1A",
"X. c #CD7D1A",
"o. c #CE7E1A",
"O. c #CF7F1A",
"+. c #D0801A",
"@. c #D1811A",
"#. c #D2821A",
"$. c #D3831A",
"%. c #D4841A",
"&. c #D5851A",
"*. c #D6861A",
"=. c #D7871A",
"-. c #D8881A",
";. c #D9891A",
":. c #DA8A1A",
">. c #DB8B1A",
",. c #DC8C1A",
"<. c #DD8D1A",
"1. c #DE8E1A",
"2. c #DF8F1A",
"3. c #E0901A",
"4. c #E1911A",
/* pixels */
"Q Q Q Q Q } $.1.4.4.4.4.4.4.,.#.{ Q Q Q Q Q Q J h 2 X       - s G Q Q Q Q Q Q Q Q Q Q Q Q Q Q Q Q Q ",
"Q Q Q Q Q } $.<.3.3.3.3.3.3.>.@.{ Q Q Q Q Q Q J j 6 o . . . : s G Q Q Q Q Q Q Q ~ ^ ^ ^ ^ ^ ^ ^ ^ ^ ",
"Q Q Q Q Q [ o.&.=.=.=.=.=.=.%.X.] Q Q Q Q Q Q L v y 3 , , , r l J Q Q Q Q Q Q / ` {  . . . . . . . .",
"Q Q Q Q Q ) { ..X.X.X.X.X.X. .{ ) Q Q Q Q Q Q R A x f d d d l B R Q Q Q Q Q Q ) | @.&.&.&.&.&.&.&.&.",
"Q Q Q Q Q ! ~ ^ / / / / / / ~ ~ Q Q Q Q Q Q Q Q W U L L L L U Y Q Q Q Q Q Q Q ' O.;.2.2.2.2.2.2.2.2.",
"Q Q Q Q Q K B c x x x b C P Q Q Q Q Q Q Q Q Q Q Q Q Q Q Q Q Q Q Q Q Q Q Q Q Q ] +.:.4.4.4.4.4.4.4.4.",
"Q Q Q Q Q B g e 9 9 q y l S Q Q Q Q Q Q Q Q Q Q Q Q Q Q Q Q Q Q Q Q Q Q Q Q Q ] +.:.4.4.4.4.4.4.4.4.",
"Q Q Q Q Q c e @ o o o = u N Q Q Q Q Q Q Q Q Q Q Q Q Q Q Q Q Q Q Q Q Q Q Q Q Q ] +.:.4.4.4.4.4.4.4.4.",
"Q Q Q Q Q x 9 o       + t M Q Q Q ! ) ] { { { { { { { ] ) Q Q Q Q Q Q Q Q Q Q _ X.%.:.:.:.:.:.:.:.:.",
"Q Q Q Q Q x 9 o       + t M Q Q Q ( { o.#.#.#.#.#.#.@.X.{ ~ Q Q Q Q Q Q Q Q Q ( { X.+.+.+.+.+.+.+.+.",
"Q Q Q Q Q x 9 o       + t M Q Q Q ) X.&.,.,.,.,.,.,.>.%. .~ Q Q Q Q Q Q Q Q Q ~ ( ) ] ] ] ] ] ] ] ] ",
"Q Q Q Q Q x 9 o       + t M Q Q Q ) O.;.4.4.4.4.4.4.3.=.X./ Q Q Q Q Q Q Q Q Q U G V M M M M S L Q Q ",
"Q Q Q Q Q x 9 o       + t M Q Q Q ) O.;.4.4.4.4.4.4.3.=.X./ Q Q Q Q Q Q Q Q Q J x d t t t y k N R Q ",
"Q Q Q Q Q x 9 o       + t M Q Q Q ) O.;.4.4.4.4.4.4.3.=.X./ Q Q Q Q Q Q Q Q Q A d 5 + + + $ t x U Q ",
"Q Q Q Q Q b t % O O O > p V Q Q Q ) X.&.,.,.,.,.,.,.>.%. .~ R G C B B B A J U B y $       X 6 k U Q ",
"Q Q Q Q Q C k t e e e p x D Q Q Q ( { o.#.#.#.#.#.#.@.X.{ ~ A l s y y y d x G B y $       X 6 k U Q ",
"Q Q Q Q Q K A m b b b m A U Q Q Q ! ) ] { { { { { { { ] ) Q m i : $ $ $ 5 d V B y $       X 6 k U Q ",
"Q Q Q Q Q Q Q Q Q Q Q Q Q Q Q Q Q Q Q Q Q Q Q Q Q Q Q Q Q Q x 8 o       + t M C s : o o o O w z U Q ",
"Q Q Q Q Q Q Q Q Q Q Q Q Q Q Q Q Q Q Q Q Q Q Q Q Q Q Q Q Q Q x 8 o       + t M G l i 9 9 9 e g N U Q ",
"Q Q Q Q Q Q Q Q Q Q Q Q Q Q Q Q Q Q Q Q Q Q Q Q Q Q Q Q Q Q x 8 o       + t M R A m x x x x N J Q Q ",
"Q Q Q U L L L L U U Q Q Q Q Q Q Q Q Q Q Q ~ ~ ^ / / ^ ~ ~ Q x e O X X X $ y M Q Q Q Q Q Q Q Q Q Q Q ",
"Q W A b f d d d j N P Q Q Q Q Q Q Q Q Q ~ ] | X.X.X.X.| ] ~ N g w 6 6 6 t k S Q Q Q Q Q Q Q Q Q Q Q ",
"Q U b p 1 , , , w j G Q Q Q Q Q Q Q Q Q ~ | @.*.=.=.*.@.| ~ J N z k k k x N L Q Q Q Q Q Q Q Q Q Q Q ",
"Q U l 7 o . . . * p B Q ^ / / / / / ~ ! ^ X.*.2.3.3.2.*.X.^ Q U U U U U P P J J J J L U W Q Q Q Q Q ",
"Q U k 6 X       $ y V ( ] | ...... .[ ) / X.=.3.4.4.3.=.X./ Q Q Q Q Q Q K N l h h h k n G Q Q Q Q Q ",
"Q U k 6 X       $ y V ` ..#.*.*.*.%.X.] / X.=.3.4.4.3.=.X./ Q Q Q Q Q Q Z h e 3 2 2 0 d B Q Q Q Q Q ",
"Q U l 8 o . . . * p V ] +.:.2.2.2.,.#.} ^ X.*.2.3.3.2.*.X.^ Q Q Q Q Q Q N y & X X X O e x Q Q Q Q Q ",
"Q U b p 1 , , , w j G [ @.>.4.4.4.1.$.} ~ | @.*.=.=.*.@.| ~ Q Q Q Q Q Q M t +       o 9 x Q Q Q Q Q ",
"Q W A b f d d d j N P [ @.>.4.4.4.1.$.} ~ ] | X.X.X.X.| ] ~ Q Q Q Q Q Q M t +       o 9 x Q Q Q Q Q ",
"Q Q Q U L L L L U U Q [ @.>.4.4.4.1.$.} Q ~ ~ ^ / / ^ ~ ~ Q Q Q Q Q Q Q M t +       o 9 x Q Q Q Q Q ",
"Q Q Q Q Q Q Q Q Q Q Q ` X.%.-.;.;.=.O.[ Q Q Q Q Q Q Q ( ] } } } } [ ` ^ C f 7 ; - - < p m Q Q Q Q Q ",
"Q Q Q Q Q Q Q Q Q Q Q ( { ..o.o.o.X.} ) Q Q Q Q Q Q ^ ] ..#.%.%.%.O.| ) J b g s s s f v D Q Q Q Q Q ",
"Q Q Q Q Q Q Q Q Q Q Q ~ ( ( ) ) ) ) ( ^ Q Q Q Q Q Q ^ | $.,.1.1.1.-.o.` R L J G G G G K R Q Q Q Q Q ",
"Q Q Q Q Q Q Q Q Q Q Q Q Q Q Q Q Q Q F B b b b n B H ~  .&.2.4.4.4.:.+.] Q Q Q Q Q Q Q Q Q Q Q Q Q Q ",
"Q Q Q Q Q Q Q Q Q Q Q Q Q Q Q Q Q L c s e e e t f m E  .&.2.4.4.4.:.+.] Q Q Q Q Q Q Q Q Q Q Q Q Q Q ",
"Q Q Q Q Q Q Q Q Q Q Q Q Q Q Q Q Q G f 4 O O O # q l R  .&.2.4.4.4.:.O.] Q Q Q Q Q Q Q Q Q Q Q Q Q Q ",
"[ ] ` ( Q Q Q Q Q Q Q Q Q Q Q Q Q G a -       X 2 h T } @.:.>.>.>.&.X.` ~ ) ` [ [ [ ] ) ^ Q ( ` ] [ ",
"@.+...[ ~ Q Q Q Q Q Q Q Q Q Q Q Q G a -       X 2 h I ]  .+.@.@.@.X.} ) ) } o.@.@.@.O.| ` ~ [ ..+.@.",
">.:.$. .~ Q Q Q Q Q Q Q Q Q Q Q Q G a -       X 2 h K / ` [ [ [ [ ] ) ^ ` o.*.>.>.>.;.+.{ ~  .$.:.>.",
"4.2.=.X./ ^ ) ` ] ] ] ] ] ] ` ( ^ G f 6 O O O # q l L Q Q Q Q Q Q Q Q Q [ @.>.4.4.4.1.$.} / X.=.2.4.",
"4.3.=.X./ ` | o.+.+.+.+.+.+.o.} ) L c s e e e t g m U Q Q Q Q Q Q Q Q Q [ @.>.4.4.4.1.$.} / X.=.3.4.",
"4.3.=.X./ [ O.-.:.:.:.:.:.:.*.o.[ Q F B b b b n B H W Q Q Q Q Q Q Q Q Q [ @.>.4.4.4.1.$.} / X.=.3.4.",
"1.<.&...^ } $.1.4.4.4.4.4.4.,.#.{ Q Q Q Q Q Q Q Q Q Q Q Q Q Q Q Q Q Q Q [ @.>.4.4.4.1.$.} ^ ..&.<.1.",
"$.$.o.{ ~ } $.1.4.4.4.4.4.4.,.#.{ Q Q Q Q Q Q Q Q Q Q Q Q Q Q Q Q Q Q Q [ @.>.4.4.4.1.$.} ~ { o.$.$.",
"} } [ ) ! } $.1.4.4.4.4.4.4.,.#.{ Q Q Q Q Q Q Q Q Q Q Q Q Q Q Q Q Q Q Q [ @.>.4.4.4.1.$.} ! ) [ } } ",
"Q Q Q Q Q } $.1.4.4.4.4.4.4.,.#.{ Q Q Q Q Q Q Q W U L L L L U Y Q Q Q Q [ +.:.2.2.2.,.#.} Q Q Q Q Q ",
"Q Q Q Q Q } $.1.4.4.4.4.4.4.,.#.{ Q Q Q Q Q Q R A x f d d d l B P Q Q Q `  .@.&.&.&.$...] Q Q Q Q Q ",
"Q Q Q Q Q } $.1.4.4.4.4.4.4.,.#.{ Q Q Q Q Q Q L v y 3 , , , r l J Q Q Q / ] }  . . .| ] ( Q Q Q Q Q ",
"Q Q Q Q Q } $.1.4.4.4.4.4.4.,.#.{ Q Q Q Q Q Q J j 6 o . . . : s G Q Q Q ! ~ ^ ^ ^ ^ ^ ^ Q Q Q Q Q Q ",
"Q Q Q Q Q } $.1.4.4.4.4.4.4.,.#.{ Q Q Q Q Q Q J h 2 X       - s G Q Q Q Q Q Q Q Q Q Q Q Q Q Q Q Q Q "
};
