/* XPM */
static char *result[] = {
/* columns rows colors chars-per-pixel */
"50 50 218 2 ",
"   c #010101",
".  c #0F0B01",
"X  c #0C0A08",
"o  c #110C01",
"O  c #171203",
"+  c #0F0F10",
"@  c #0F1010",
"#  c #111212",
"$  c #261C03",
"%  c #252201",
"&  c #292101",
"*  c #332406",
"=  c #3D2B07",
"-  c #3D2B09",
";  c #3C3402",
":  c #3C3A01",
">  c #292116",
",  c #1D1E20",
"<  c #28292A",
"1  c #373026",
"2  c #383839",
"3  c #412E09",
"4  c #443606",
"5  c #49340A",
"6  c #513A0D",
"7  c #4C4303",
"8  c #494900",
"9  c #5E4C09",
"0  c #5E4411",
"q  c #665A05",
"w  c #685A06",
"e  c #695A08",
"r  c #684C13",
"t  c #6C5518",
"y  c #745716",
"u  c #765618",
"i  c #7E5C1A",
"p  c #6C6602",
"a  c #796809",
"s  c #7D7702",
"d  c #746A10",
"f  c #5C4831",
"g  c #725835",
"h  c #67612F",
"j  c #3B3D40",
"k  c #444649",
"l  c #4C4F52",
"z  c #4E5054",
"x  c #56595A",
"c  c #63645F",
"v  c #696C6E",
"b  c #777A7B",
"n  c #835F1C",
"m  c #887709",
"M  c #84621C",
"N  c #89661D",
"B  c #8C6A1C",
"V  c #8C7610",
"C  c #95721C",
"Z  c #BE6D16",
"A  c #926C21",
"S  c #966E2A",
"D  c #AA7E27",
"F  c #BF7B2F",
"G  c #C1711C",
"H  c #CA7A1C",
"J  c #C37C2F",
"K  c #916F4B",
"L  c #AD7942",
"P  c #878601",
"I  c #888800",
"U  c #93810A",
"Y  c #9D9901",
"T  c #958416",
"R  c #A38E0D",
"E  c #A39408",
"W  c #A68D13",
"Q  c #AC9617",
"!  c #B7A50C",
"~  c #AE8128",
"^  c #B78B27",
"/  c #B2842A",
"(  c #A3972B",
")  c #B3A433",
"_  c #D4841C",
"`  c #DD8D1C",
"'  c #E1911C",
"]  c #C0B603",
"[  c #C3AA12",
"{  c #CCB115",
"}  c #D8BE14",
"|  c #CD842C",
" . c #D78E2A",
".. c #C6962C",
"X. c #CB8634",
"o. c #CA9630",
"O. c #CE9931",
"+. c #D59C32",
"@. c #CDA523",
"#. c #D6AB27",
"$. c #CCB12C",
"%. c #D8A332",
"&. c #DAA631",
"*. c #E1AF2F",
"=. c #E5BB26",
"-. c #EABF26",
";. c #E3B22D",
":. c #C3C300",
">. c #CCC601",
",. c #D1CC01",
"<. c #DBD304",
"1. c #DBC115",
"2. c #E9D70A",
"3. c #E6C819",
"4. c #F1CF1E",
"5. c #EDD219",
"6. c #F2D715",
"7. c #F6DD14",
"8. c #F8DE14",
"9. c #F4D41B",
"0. c #F6D81A",
"q. c #F8DA1A",
"w. c #F6EA05",
"e. c #F8EB06",
"r. c #F6E40C",
"t. c #F8E60C",
"y. c #F6EB0A",
"u. c #F8E909",
"i. c #F6F500",
"p. c #F8F301",
"a. c #F8F800",
"s. c #F8E110",
"d. c #F7E51C",
"f. c #F6F61A",
"g. c #D9CD2E",
"h. c #EAC621",
"j. c #EBC125",
"k. c #F1CC20",
"l. c #EFD42C",
"z. c #F7DC23",
"x. c #F6DB33",
"c. c #F5DD3A",
"v. c #F6E729",
"b. c #F4F32A",
"n. c #F6E436",
"m. c #F4F634",
"M. c #F4F53C",
"N. c #AF874C",
"B. c #B7894A",
"V. c #ABA055",
"C. c #928F70",
"Z. c #C59249",
"A. c #CBBE50",
"S. c #D6CD58",
"D. c #E9D442",
"F. c #F5DD42",
"G. c #F4DE4D",
"H. c #F5E649",
"J. c #F2F050",
"K. c #F3F653",
"L. c #F2F25B",
"P. c #DAD372",
"I. c #ECDB65",
"U. c #E8DB7B",
"Y. c #F2E26B",
"T. c #F2E968",
"R. c #F2F366",
"E. c #F2E471",
"W. c #F1E47C",
"Q. c #F1F473",
"!. c #F0F37E",
"~. c #7E8287",
"^. c #85898D",
"/. c #929387",
"(. c #878C91",
"). c #888D92",
"_. c #8E9398",
"`. c #93979B",
"'. c #9FA198",
"]. c #BBB68D",
"[. c #999EA3",
"{. c #A9ADAC",
"}. c #D8D28B",
"|. c #EFE685",
" X c #F0E483",
".X c #F0EA89",
"XX c #F0F386",
"oX c #EFE99B",
"OX c #F0E697",
"+X c #EFF294",
"@X c #F0F391",
"#X c #CDCBA2",
"$X c #C1C4B9",
"%X c #DDDBB5",
"&X c #EDE8A6",
"*X c #EEF2AE",
"=X c #EDEAB7",
"-X c #ECEBBB",
";X c #EEF2B0",
":X c #EDF1BA",
">X c #B7BDC3",
",X c #BFC6CC",
"<X c #C2C7CC",
"1X c #CDD4DA",
"2X c #E4E3C0",
"3X c #EDEBC3",
"4X c #ECEECC",
"5X c #EDF0C0",
"6X c #ECF1CC",
"7X c #ECEED4",
"8X c #E9ECDB",
"9X c #EAF0D5",
"0X c #D3DAE1",
"qX c #DCE2E6",
"wX c #DEE4E9",
"eX c #E6EBE4",
"rX c #E7ECE7",
"tX c #EAF1E2",
/* pixels */
"G G Z G G H H ' ' ' ' ' ' ' ` H H                                 Z G G G Z G F G G G G G G G G G G ",
"G G G G G H _ ` ' ' ' ' ' ' ` _ K X X     X X     X       X   X   K G G G G G Z G G G G G G G G G G ",
"G Z G G Z H H _ ` _ ` _ _ _ _ H 2 j k k k k k k k k k k k j k k j 2 G G G G G G G H H H H H H H H H ",
"G G G G G H H H H H f         1 x v _._._.`.`.`.`.[.`._._.[._.(.b x <         f Z._ _ H ` H ` _ _ ` ",
"G G G G G G G G L >           1 v [.1XqXqXqXqX0XrX0X0XeXwX0XwX1X[.v 1           > Z.` ` ' ` ' ' ' ' ",
"G G G G G Z Z L 1 2 j j j j 2 c C.{.%X3X3X3X3X3X3X3X3X3X4X4X3X%X].C.h : ; = = * * $ N.' ' ' ' ' ' ' ",
"G G G G G K g 2 x b ^.(.).).).'.].}.U.W.W.W.W.W. XW.W.W.W.W.W.U.S.) ( U V B M i r 6 * g  .' ' ' ' ' ",
"G Z G G G   + k b {.1X0X1X0X0X%XOXI.F.x.x.x.x.x.x.x.x.x.x.x.x.x.l.4.3.3.#.@.O.^ A r 3 o   +.' ' ' ' ",
"G G G G     # k ~.>XrXrXtX7X4X&XW.H.v.q.n.n.F.G.G.G.G.F.c.v.d.7.7.7.8.0.k.-.;.+.D u 3 o      .` ` ` ",
"G G G Z     # l ~.>XeX8X3X&X XE.H.n.t.v.H.Y.|.OXOXOXOX XT.H.v.u.r.r.8.0.k.=.;.O.D u 3 .     | H H H ",
"G G G G     # k ^.{.qX3X&XY.F.n.d.y.p.b.K..X5X7X7X7X7X3X@XK.b.w.e.r.8.0.k.-.*.O.D u - .     J H G H ",
"Z G G G > < 2 c /.$X2X&XE.H.s.d.d.b.b.J.Q.+X:X6X4X4X8X-X|.S.g.,.<.2.2.8.9.h.=.&.^ N 0 * $ O G G G G ",
"    # f x v ~.`.].}. XY.H.v.t.f.H.L.Q.Q.XX!.!.XX.X.X.XP.S.) T I E ] <.w.7.5.k.-.@.^ V y r 6 * X     ",
"    + l b {.$X#X}.I.F.n.d.t.p.b.L.@X:X;XXXR.M.b.b.n.F.D.( m 8 : p Y ,.p.w.s.0.3.-.#.../ A r 3 o     ",
"    # z (.,XrX-X XG.z.s.u.e.a.m.Q.;XtX6X@XK.f.p.t.r.8.1.R e & O 8 I :.i.e.e.s.0.4.=.;.%.D n 5 o     ",
"    # z (.>XrX-X XG.z.8.u.p.a.m.Q.;XtX6X@XK.f.i.y.r.d.1.R e % . 8 I :.i.e.e.s.0.4.-.;.%.D n 5 X     ",
"    + l (.,XeX=X XG.z.s.e.p.a.m.Q.;XtX6X@XK.f.a.e.u.8.1.W w $ o 8 I :.i.p.w.s.0.k.-.;.%.D n 5 .     ",
"    + z (.,X8X=X XG.z.s.e.p.p.m.Q.;XtX6X@XK.f.a.p.t.s.1.R q & o 8 I :.i.i.y.s.0.k.-.;.%.D n 5 .     ",
"    + z (.,XrX=X XG.z.s.u.e.a.m.Q.;XtX6X@XK.f.p.e.t.8.1.R p & o 8 I :.a.p.u.s.0.k.-.;.%./ n 5 X     ",
"    + z (.,XeX=X XG.z.s.e.p.a.m.Q.;XtX6X@XK.f.a.e.t.8.1.R q & o 8 I :.i.p.u.s.0.k.j.;.%.D n 5 .     ",
"    @ z ).,XeX=X XG.z.8.e.e.p.m.Q.;XtX6X@XK.f.a.e.t.8.1.R q % . 8 I :.i.e.t.s.0.k.-.;.%./ n 5 .     ",
"    @ z (.,XeX=X XG.z.s.e.p.a.m.Q.;XtX6X@XK.f.p.e.t.8.} R q & . 8 I :.i.p.w.s.0.k.-.;.%./ i 3 .     ",
"    @ z ).<XeX=X XG.z.s.e.e.a.m.Q.;XtX6X@XK.f.a.e.r.8.1.W d & o 8 P :.p.e.w.s.0.k.-.;.%./ i 5 .     ",
"    + z ).,XeX=X XG.z.s.u.p.a.m.Q.;XtX6X@XK.f.a.e.r.8.} R q & o 8 P :.p.p.e.s.0.4.-.;.%./ i 5 .     ",
"    + z ).,XrX=X XG.z.s.t.p.a.m.Q.*XtX6X@XK.f.a.e.r.7.1.W q & o 8 I :.i.p.r.s.0.3.-.;.%.D i 5 X     ",
"    + z ).,XeX=X XG.z.s.e.p.a.m.Q.*XtX6X@XK.f.p.e.r.7.1.R q & o 8 I :.i.e.e.s.0.k.-.;.%.D n 5 .     ",
"    @ z ).,XeX=X XG.z.s.u.e.p.m.Q.;XtX6X@XK.f.p.e.r.7.1.R q & o 8 I :.i.p.e.s.0.k.j.;.%./ n 5 .     ",
"    @ z ).<XtX=X XG.z.s.e.e.p.m.Q.;XtX6X@XK.f.p.p.t.s.1.R p % . 8 I :.i.p.u.s.0.k.-.;.%.F n 5 .     ",
"    @ z ).,XrX=X XG.z.s.u.p.a.m.Q.;XtX6X@XK.f.p.y.t.8.1.R e & o 8 I :.i.p.u.8.0.k.-.;.%./ i 3 .     ",
"    @ z ).,XrX=X XG.z.r.u.p.a.m.Q.;XtX6X@XK.f.i.e.t.8.1.R e & o 8 I :.i.e.u.s.0.k.-.;.%./ i 5 o     ",
"    + z (.,XeX=X XG.z.8.u.p.a.m.Q.;XtX6X+XL.b.e.u.t.8.1.R q % . 8 I :.i.p.t.s.0.k.-.;.%./ u 5 .     ",
"    + z (.,XeX=X XG.z.r.e.e.p.m.Q.;XtX4XOXL.v.t.8.8.q.1.R p % . 8 I :.i.e.e.s.q.k.-.;.%./ i 5 .     ",
"    + z ).,XeX=X XG.z.s.u.p.p.m.Q.;XtX9XoXI.x.8.8.8.6.} R q & o 8 I :.a.p.u.s.0.4.-.;.%./ n 3 o     ",
"    + l ).,XeX=X XG.z.s.u.p.p.m.Q.*XtX9XoXT.c.0.q.q.q.1.R e & o 8 I :.a.p.e.s.0.4.-.;.%./ n 5 .     ",
"    @ z (.,XtX-X XG.z.s.u.p.p.m.Q.*XtX6X&XY.c.0.q.q.q.1.E q & o 8 I :.a.e.w.s.0.4.-.*.%./ u 5 .     ",
"    @ z (.,XeX:X XG.z.s.e.p.a.m.Q.*XtX6XoXY.c.6.9.9.q.} R q & o 8 I :.i.e.w.s.0.k.-.*.+.D i 5 .     ",
"    @ k b {.$X}.P.D.z.s.u.p.i.b.L.@X:X&XU.S.$.{ { { { ! U p 8 : p Y >.e.w.r.0.4.h.#.../ S r 3 o     ",
"_ | + 2 x v b C.V.g.z.s.e.e.i.f.m.J.Q.P.A.( V s m a a s s m s P Y ! <.w.s.5.3.=.@.^ C u r 6 3 o _ H ",
"` ` _ X., < 1 t W #.5.r.u.p.p.i.f.f.f.g.Q d 4 % $ & & ; q I ! ,.<.<.7.7.9.h.=.&./ N 0 * $ $ J _ _ ` ",
"` ` _ X.    O 7 m [ 5.s.t.e.p.a.i.i.i.,.Y p = $ $ O % 4 p Y ,.i.i.u.6.9.j.=.*.+.~ y 3 o     H ` ' ' ",
"' ` ` X.    . 7 m [ 5.8.r.r.e.u.e.u.u.<.] R m a w a d m E ! <.w.7.9.3.-.;.*.&.O.D y 3 .     | _ ' ' ",
"' ' ` X.    o 7 m [ 5.7.q.7.s.8.7.7.8.6.3.} { [ [ [ ! { 1.3.6.8.4.k.=.&.*.&.&.O.D y - .     | _ ' ' ",
"` ` _ H /   . 4 m Q } 3.3.3.3.3.3.5.9.4.6.9.9.6.4.9.k.q.6.q.9.4.=.#.%...o.o.o.^ A t = .   J H _ ` ` ",
"H _ H H G X.g = 9 a m U m V m R ! #.=.-.-.-.-.-.-.j.j.-.j.j.-.=.@.Q C i i i n n r 6 = g J G H _ _ _ ",
"H H H G G G _ N.& ; ; ; 4 4 ; q C ^ #.*.*.;.*.*.;.*.;.;.;.*.*.&./ N 9 * * * * * & & B._ H G G H G H ",
"G G G G G H _ ` Z.>           $ 0 A ..o.o.o.o.o.O.o.o.o.o.o.O.^ A 0 &           > Z.` _ H G G G G G ",
"G G G G G H _ ' ' +.f         $ 5 r i n A N n M N M N N n N N M r 5 $         f  ._ _ H G G G G Z G ",
"G G G G G H _ ' ' ' ' ' ' ' ` _ $ = = 3 3 3 3 = 3 3 3 3 = 3 = 3 = * G G G H H H H H H H G G G G G G ",
"G G G G G G _ ` ' ' ' ' ' ' ` H K .         .           .         G G G G G G G G G G G G G G G G G ",
"G G G G G H H ' ' ' ' ' ' ' ' _ H                                 G G G G G G G G G G G G G G G G G "
};
