/* XPM */
static char *result[] = {
/* columns rows colors chars-per-pixel */
"50 50 249 2 ",
"   c #010000",
".  c #0C0402",
"X  c #0B0A0B",
"o  c #140302",
"O  c #170906",
"+  c #121010",
"@  c #161415",
"#  c #280503",
"$  c #350809",
"%  c #261609",
"&  c #271915",
"*  c #362415",
"=  c #181B20",
"-  c #272525",
";  c #382723",
":  c #353333",
">  c #460204",
",  c #4D0101",
"<  c #530001",
"1  c #5C0304",
"2  c #4A1415",
"3  c #5A1A1A",
"4  c #640102",
"5  c #690505",
"6  c #760304",
"7  c #6F1114",
"8  c #502B12",
"9  c #733518",
"0  c #561027",
"q  c #671124",
"w  c #4F2826",
"e  c #453737",
"r  c #692929",
"t  c #6D3724",
"y  c #6C3335",
"u  c #773836",
"i  c #6D4717",
"p  c #764917",
"a  c #594836",
"s  c #754D2E",
"d  c #38364E",
"f  c #323478",
"g  c #4D3056",
"h  c #773548",
"j  c #632359",
"k  c #4F3269",
"l  c #3E417E",
"z  c #534E4E",
"x  c #594858",
"c  c #6D524C",
"v  c #6F5F5A",
"b  c #4A4167",
"n  c #767275",
"m  c #870403",
"M  c #8D0102",
"N  c #940001",
"B  c #9A0101",
"V  c #9A0C07",
"C  c #901310",
"Z  c #A60101",
"A  c #AA0C0C",
"S  c #AF1112",
"D  c #8C3211",
"F  c #A21829",
"G  c #883332",
"H  c #B82B2D",
"J  c #CC191B",
"K  c #C51A20",
"L  c #CF2E2C",
"P  c #D7292A",
"I  c #EB2C2B",
"U  c #EB3638",
"Y  c #F63536",
"T  c #914F14",
"R  c #8C5619",
"E  c #8C5A1C",
"W  c #945815",
"Q  c #92551C",
"!  c #915A1B",
"~  c #A14F00",
"^  c #A55200",
"/  c #A65607",
"(  c #AB5A00",
")  c #AE5D0D",
"_  c #B05F0D",
"`  c #A85C14",
"'  c #93651B",
"]  c #B5640D",
"[  c #B8680D",
"{  c #B36312",
"}  c #BC6B16",
"|  c #B86B18",
" . c #895826",
".. c #975925",
"X. c #86403E",
"o. c #824C3F",
"O. c #875837",
"+. c #965136",
"@. c #A75829",
"#. c #AE5134",
"$. c #986526",
"%. c #956E2C",
"&. c #8C6635",
"*. c #946736",
"=. c #B06D2F",
"-. c #B97938",
";. c #C07016",
":. c #C1701C",
">. c #CB7A1C",
",. c #CA4528",
"<. c #C37729",
"1. c #C27B35",
"2. c #A43659",
"3. c #D33544",
"4. c #874442",
"5. c #8D524A",
"6. c #8B574A",
"7. c #A54E4D",
"8. c #B25754",
"9. c #906B4B",
"0. c #97744C",
"q. c #9B7557",
"w. c #B26E49",
"e. c #A87A4C",
"r. c #A67A55",
"t. c #9A5573",
"y. c #8D716E",
"u. c #AD776B",
"i. c #CC5653",
"p. c #F05254",
"a. c #C66A51",
"s. c #DA6C59",
"d. c #E9665E",
"f. c #F0615D",
"g. c #E65F63",
"h. c #CC6262",
"j. c #D36163",
"k. c #CF7772",
"l. c #EA6B64",
"z. c #F26966",
"x. c #FB6E6C",
"c. c #EA716C",
"v. c #F7736C",
"b. c #FA6F72",
"n. c #F77776",
"m. c #F97272",
"M. c #B08039",
"N. c #D4841C",
"B. c #D7881E",
"V. c #DD8D1C",
"C. c #E1911C",
"Z. c #D48B2C",
"A. c #C5823C",
"S. c #E19423",
"D. c #B9814A",
"F. c #AA8356",
"G. c #B48655",
"H. c #B78A52",
"J. c #9D8473",
"K. c #BA8C69",
"L. c #B9976D",
"P. c #AA8B72",
"I. c #B99A77",
"U. c #C78849",
"Y. c #CB9152",
"T. c #D0A954",
"R. c #CB946F",
"E. c #ED857A",
"W. c #C2A176",
"Q. c #F2CE6D",
"!. c #1C2E8C",
"~. c #16308B",
"^. c #1A2C95",
"/. c #183999",
"(. c #262D86",
"). c #273389",
"_. c #33368B",
"`. c #2B3B97",
"'. c #253CA2",
"]. c #16419A",
"[. c #334492",
"{. c #1E40A4",
"}. c #2D4FAC",
"|. c #4B5193",
" X c #694E93",
".X c #6F6C98",
"XX c #4458AD",
"oX c #5569AE",
"OX c #6970B4",
"+X c #3E5CC0",
"@X c #2D67CE",
"#X c #3B68C4",
"$X c #3266CB",
"%X c #3264D1",
"&X c #476AC9",
"*X c #587BD9",
"=X c #6E79C5",
"-X c #527EE1",
";X c #876E85",
":X c #7D83B0",
">X c #6D90DC",
",X c #4D83E6",
"<X c #5A8EF1",
"1X c #6794E9",
"2X c #6A96F7",
"3X c #699AF6",
"4X c #6599FC",
"5X c #78A2F4",
"6X c #918E8D",
"7X c #929393",
"8X c #AB928A",
"9X c #B89D85",
"0X c #BEA58B",
"qX c #BDA998",
"wX c #9F9DAC",
"eX c #D5908D",
"rX c #F08E8B",
"tX c #CEA68C",
"yX c #C3AB97",
"uX c #CCB398",
"iX c #ECAB9C",
"pX c #CAB1AE",
"aX c #CEBEAA",
"sX c #D2BDA6",
"dX c #F7ADA5",
"fX c #EFB5AC",
"gX c #D8C4AB",
"hX c #D9C9B9",
"jX c #F0CDBA",
"kX c #FAC8BA",
"lX c #A8B4D6",
"zX c #9CB2E8",
"xX c #B7C9EC",
"cX c #D9D2CC",
"vX c #FACCC3",
"bX c #E4D8C9",
"nX c #F5D2CB",
"mX c #F8D7D4",
"MX c #EFE4D7",
"NX c #C9D0E9",
"BX c #CCDCF4",
"VX c #ECEBEA",
"CX c #F7E8E7",
"ZX c #F6F3EE",
"AX c #F8F5F7",
"SX c #F6FAF6",
"DX c #F9F9F5",
"FX c #F6F9FA",
"GX c #F8F9FA",
/* pixels */
":.:.:.:.:.>.N.V.C.C.C.C.C.C.V.>.>.:.:.:.<.:.:.D.r.y.q.+...~ ( { } } <.=.-.;.:.:.:.:.:.:.:.:.:.:.:.:.",
":.:.:.:.:.>.N.V.C.C.C.C.C.C.C.>.>.:.:.:.} } e.3 < < < < < < , , > > < , < <.:.| <.:.:.:.:.:.:.:.:.:.",
":.:.:.:.:.>.>.N.V.B.N.B.N.B.B.>.U.5.u h 4.h G H L L L H u.yXpXpXpXpXh.H H u u 5.U.>.>.>.>.>.>.>.>.>.",
":.:.:.} :.:.>.>.>.>.>.>.>.>.>.>.w.u 5 5 4 5 S P I Y Y p.rXnXVXZXCXmXrXp.p.V 4 3 r.>.N.N.B.N.N.N.V.N.",
":.:.:.:.:.:.:.:.:.:.:.:.>.A.o.y G L P P P U K S Z i.kXnXiXf.p.p.p.z.rXnXmX5.1 3 r.B.C.V.C.V.C.V.C.V.",
":.:.:.:.:.} } | } } } } } w.7 5 V L I I I I J B 6 t.cXcXeX3.P U P i.eXNXcXc 2 3 r.Z.S.C.C.S.C.C.C.C.",
":.} :.:.:.} [ _ ) _ =.5.r D 3.P J S A Z V A 6 # o & - - - $ $ # # $ & - - @ . . + + & C.C.C.C.C.C.C.",
":.:.:.:.:.| ] ^ ) ` *.G 6 V L I L V M m 6 m < o                                     + S.C.C.C.C.C.C.",
":.:.:.:.:.} _ ` r 1 C L Y P Z N 4 #   .                                                   + G.V.V.V.",
":.:.:.:.;.w.*.w.7 6 M S J S 6 1 $ o                                                       X F.N.>.N.",
":.:.:.:.<.u < 4 M N N B N 6 o .           .                                               X r.:.>.:.",
"} :.:.:.1.y < 4 N N B Z B 6 o       . $ 4.4.y.6X7X7X7X6Xy.5.X.y.6X7X7X7X7X: X         e q.F.1.;.:.;.",
":.:.<.} U.u 4 4 m N N N M 5 o       o w n.x.dXCXGXFXFXVXfXn.n.fXZXSXFXDXFXx X       + { ] _ [ } } :.",
":.:.} | U.k.7.i.k.R.8.r $ # .   w u 7.8.n.m.dXCXFXwXv v 8XiXdX8Xv v wXSXFX9XF.q.0.9.0.( ^ ^ _ } :.:.",
":.>.} A.R.rXv.E.fXnX8Xe         t a.m.x.m.n.dXCXGX7XX X c jXvXy.% - :XGXFXY.} } _ / ~ ~ ~ ^ ) ] ;.:.",
":.a.E.E.k.#.@.w.fXnX8Xe         w i.n.rXfXkXmXZXDX7X  X c fXvXv @ % n FXFX9X0.q.L./ ~ ~ ~ ~ ) [ ;.:.",
">.U.rXm.d.@.W $.iXfXP.e         w 7.h.k.vXvXmXZXZX8X; w c iXfXu.e z 6XZXCXtXe.e.I.W.L.) ~ ~ ) ] } :.",
":.R.E.m.s.=.W W c.b.8.;             . z jXkXvXkXvXdXn.v.v.x.b.iXkXvXkXkXnXkXjXfXL.' ..tX=.^ _ } ;.:.",
":.:.Y.E.R.a.=.i.l.m.i.h w w .   = e c y.nXvXuX8XJ.u.s.d.l.m.n.rXdXdXdXdXdXdXdXiXa.R  .9X-._ [ } ;.:.",
":.:.:.;.U.rXv.v.m.v.v.b.c.8.# . x yXjXvXvXnXy.; X *  .! =.z.m.m.v.m.m.m.m.v.m.l.w...&.0XU.} } } :.:.",
":.:.:.;.U.t.X.X.X.4.7.s.c.j.G u 8.eXiXeXy.y.z O   @ 8 8 t X.4.X.X.X.X.4.X.4.X.s t 8 w a z F.<.;.:.:.",
":.:.} } D.- .       w 8.b.n.n.b.v.v.v.7.o               .                                 + F.:.:.:.",
":.;.} _ ( ( ] c @   O $ 2 u c.b.m.x.x.E.yXqXyXyXqXv X                                 1.| :.:.:.:.:.",
":.;.] ) ^ ^ / ` ;     . . 2 s.l.v.x.v.rXkXkXkXkXvXu.$ O O O O O O O O . o o o o o . O r.W.U.:.:.:.:.",
":.;.] ) =.c q 3 > > # .   % +.@.a.d.x.m.n.rXn.n.E.c.h.j.h.h.h.h.s.a.7.p p p p p p i p O.&.0.Y.} :.:.",
":.;.] =.r.y < 4 1 1 > # # $ T T #.s.f.z.z.g.z.g.l.g.g.f.d.d.d.d.l.l.w.T Q $.%.*.$.W ! $.*.F.P.U.<.:.",
":.1.5.r 7 m N N N M M M M M V V A A A A S S C 7 7 5 7 7 D Q $.@..... .Q  .tXbXhXL.E $.uXbXbXI.%.0.9X",
":.R.y < 5 M B Z Z Z Z Z Z Z Z Z Z Z Z B M q 6 < $ 0 4 4 M @.#...+.6.O.+.*.sXCXbX9X&.0.gXZXMXL.E *.P.",
":.K.y , 4 N Z Z I U U Y Y Y Y Y Y Y U 2.f f !.^.^.2.Y Y U Y U 2.(._.wXAXSXL.$.*.qXSXDXDXSXMXL.E &.P.",
":.K.y < 4 M N B L ,.,.,.,.,.L #.L P J F j g f (.'.|.t.;X2.L F F j k ;XzXlXy.&.0.yXDXSXSXSXMXL.' &.P.",
":.K.y , 4 N Z m T Q W W W W T ..D V Z B B B j }.%X%X%X+Xk C N N B C k $X+Xv O.*.yXSXDXZXSXMXL.s &.L.",
"} R.y < 5 C D +.tXuXuXuXuXW...` T D D D 6 6 q j d `.*X*X=X X;Xh q 6 0 g d .X.X6XJ.W.W.W.I.I.W.R.U.<.",
":.P.w , 8 p ~ %.bXDXGXGXZXhX$.W W W W D , < , < > g >X2X4X4X2X X0 4 < > , .X1X1X.X! Q  .E &.R.} :.:.",
":.R.*.9 *.uXhXbXZXGXFXFXAXVXhXhXhXhXgXI.p 9 c .XOXzXBXBXBXBXBXlXOXOXOXOXoXlXBXxXwXg b K.Y.Y.<.} :.:.",
":.<.G.Q F.hXSXSXGXGXFXGXGXGXSXSXSXDXVXgX .T y.>X4XxXAXAXFXFXFXxX5X2X2X2X3XxXVXNXOXf f <.:.:.:.:.} :.",
":.<.G.Q F.bXSXSXGXGXGXGXGXGXGXSXSXGXZXhX&. .y.>X2XzXAXAXFXFXFXxX5X4X4X4X3XoX{.l x O.s 9.%.0.U.:.<.} ",
">.A.K.r.I.sXhXcXZXAXGXFXGXDXGXAXMXcXgXqXq.v :X1X4XzXBXBXBXBXBXzX5X4X<X*X-X|.l b v M.-.E E &.F.F.G.>.",
"N.>.>.>.tX8.' %.bXSXSXSXDXDXGXGXgXF.O.y.3X3X1X4X4X4X2X4X2X4X2X2X4X<X#X~.f x  .%.T.Q.Q.-.W R *   @ s ",
"V.V.N.>.F.a i a qXgXgXaXsXgXaXsX8Xn v .X*X,X<X4X4X4X4X4X4X4X4X<X*X&XXXk k c  .$.M.T.T.&.i 8 %   a V.",
"C.C.N.>.e.-   % p E ! ....!  .W v XX@X@X@X%X*X2X4X4X4X4X4X4X2X&X/.).x R R Q T W W E R &         a C.",
"C.C.N.Z.F.w 8 8 p !  .c x x g x |.}.@X$X$X$X&X-X,X,X,X,X,X,X,X}.`.).x E R E E ! W W Q & .       a C.",
"C.H.:   % i R E E ! c f !.!.~.).'.$X$X$X$X$X@X@X@X@X@X@X@X%X$X}./.(.k Q R ! Q W E R E & .       a C.",
"C.H.-   % i W T Q E c f ^.^.^.^./././.{.}./././.{./.{.[.]./././.^.).x Q Q Q R p 8 O #     + F.N.V.V.",
"N.Y.a   % i ! ' $.$.s b (.(.!.!.).!.!.^.^.^.).`.`.`.`.`.`.[.[.{.`.[.x  .R R R i 8         X e.N.N.N.",
">.N.v   % i W ' T.T.T.*.s s s s x f !.~.^.`.|.w.| | <.:.:.:.:.:.;.<.e.W  .8 % O X         + q.<.>.:.",
"} } c   % i W ' Q.Q.T.%.T p p  .z |._._.`.[.y.:.| >.;.;.} } ;.:.:.:.=.=.%.* .         + @ - D.:.:.:.",
"} H.:   % i R R ' %.s * O O O O z H.1.1.1.<.:.;.} } ] ] ] ] [ } ;.:.;.:.>.a X       X U.A.A.} } :.:.",
":.} 9.= ; a i s R  .i & @ = = @ c D.<.:.:.} :.} } _ ) ( ( ( ) [ ;.:.:.;.:.9.- = = @ : >.;.:.} <.:.:.",
":.:.:.:.D.*         : Y.C.C.V.N.} } } <.:.} :.;.[ ) ^ ~ ~ ~ ( ] ;.:.:.:.:.:.:.:.:.:.:.:.:.:.:.:.:.:.",
"} :.:.<.A.v d z z z T.V.C.C.V.N.N.>.| | :.:.:.} [ _ ^ ~ ~ ~ ( ] } :.:.:.:.:.:.:.:.:.:.:.:.:.:.:.:.:."
};
