/* XPM */
static char *result[] = {
/* columns rows colors chars-per-pixel */
"50 50 248 2 ",
"   c #010000",
".  c #0C0402",
"X  c #0B0B0C",
"o  c #140201",
"O  c #170907",
"+  c #18100C",
"@  c #0D0D12",
"#  c #171515",
"$  c #270503",
"%  c #2F0E0C",
"&  c #271509",
"*  c #392414",
"=  c #181A20",
"-  c #282526",
";  c #382420",
":  c #332E2F",
">  c #450304",
",  c #4C0101",
"<  c #540101",
"1  c #5B0100",
"2  c #5A0B0F",
"3  c #501419",
"4  c #630102",
"5  c #680605",
"6  c #760304",
"7  c #6C0E14",
"8  c #761414",
"9  c #512E15",
"0  c #7F3E0D",
"q  c #793915",
"w  c #590F27",
"e  c #6D1328",
"r  c #452521",
"t  c #4F322E",
"y  c #652426",
"u  c #6F332C",
"i  c #6C3335",
"p  c #6C4415",
"a  c #774B18",
"s  c #795018",
"d  c #464039",
"f  c #574833",
"g  c #764A26",
"h  c #734B31",
"j  c #3F2657",
"k  c #313178",
"l  c #5B2259",
"z  c #493051",
"x  c #6C3252",
"c  c #49356A",
"v  c #3B417A",
"b  c #5A4B45",
"n  c #554458",
"m  c #515050",
"M  c #6B4E4E",
"N  c #755645",
"B  c #6E605A",
"V  c #554A65",
"C  c #726F74",
"Z  c #840101",
"A  c #8C0001",
"S  c #8D0C09",
"D  c #950101",
"F  c #9B0101",
"G  c #9C0D08",
"H  c #901310",
"J  c #A60001",
"K  c #A80B0B",
"L  c #AF1313",
"P  c #91320E",
"I  c #A61B29",
"U  c #883333",
"Y  c #B6292C",
"T  c #C3191B",
"R  c #C91C24",
"E  c #D82A2A",
"W  c #CF312F",
"Q  c #ED2F30",
"!  c #F53434",
"~  c #F73637",
"^  c #8D4D16",
"/  c #8C5719",
"(  c #8D5A1B",
")  c #935916",
"_  c #92561A",
"`  c #A14F00",
"'  c #AB5900",
"]  c #A95807",
"[  c #B05F0D",
"{  c #93621B",
"}  c #B4630D",
"|  c #B8680D",
" . c #BC6B16",
".. c #B96C17",
"X. c #B96B1B",
"o. c #8C5926",
"O. c #975824",
"+. c #85403E",
"@. c #8B443F",
"#. c #994F32",
"$. c #845733",
"%. c #AD5633",
"&. c #8A6327",
"*. c #966427",
"=. c #8C6635",
"-. c #956836",
";. c #99703C",
":. c #AF6F32",
">. c #C07016",
",. c #C1701C",
"<. c #CA7A1C",
"1. c #CF4226",
"2. c #C4792A",
"3. c #C37F3D",
"4. c #983459",
"5. c #EA3A43",
"6. c #8E4A45",
"7. c #885449",
"8. c #AE5352",
"9. c #8F6F4F",
"0. c #976A46",
"q. c #997348",
"w. c #B76D4C",
"e. c #A87747",
"r. c #B57C46",
"t. c #A67955",
"y. c #995472",
"u. c #8E706A",
"i. c #AA756B",
"p. c #CB5653",
"a. c #EF5054",
"s. c #ED5A5B",
"d. c #D16755",
"f. c #E9655E",
"g. c #E9705E",
"h. c #D15E61",
"j. c #E65F62",
"k. c #CC6B68",
"l. c #D36262",
"z. c #E96A64",
"x. c #F96F6D",
"c. c #EC7168",
"v. c #F8726B",
"b. c #F17073",
"n. c #FA7272",
"m. c #F77877",
"M. c #B08039",
"N. c #D3831C",
"B. c #D7881F",
"V. c #DC8C1C",
"C. c #E1911C",
"Z. c #D68C2B",
"A. c #C5823A",
"S. c #E1972C",
"D. c #B8854E",
"F. c #AC8355",
"G. c #B88856",
"H. c #9B8775",
"J. c #B58C6E",
"K. c #B8956C",
"L. c #A68877",
"P. c #BB9975",
"I. c #C68746",
"U. c #C89053",
"Y. c #D0A953",
"T. c #CA9472",
"R. c #EA837C",
"E. c #DAA575",
"W. c #F2CE6C",
"Q. c #1A2E8D",
"!. c #16308C",
"~. c #1C2C94",
"^. c #183899",
"/. c #283389",
"(. c #29318C",
"). c #2A3A98",
"_. c #193CA1",
"`. c #14419B",
"'. c #2F4296",
"]. c #2E51B0",
"[. c #3A63B9",
"{. c #4C4D8D",
"}. c #68538B",
"|. c #706D9A",
" X c #4758A7",
".X c #5E6EAF",
"XX c #6970B6",
"oX c #3A5EC5",
"OX c #2E66CD",
"+X c #3266CB",
"@X c #2E66D1",
"#X c #3264D2",
"$X c #4A6ECE",
"%X c #647BC9",
"&X c #527CE0",
"*X c #867485",
"=X c #7981A7",
"-X c #6A8CDA",
";X c #4D82E6",
":X c #5A8EF1",
">X c #6E93E7",
",X c #699AF6",
"<X c #6A97F8",
"1X c #6599FC",
"2X c #77A2F4",
"3X c #918E8E",
"4X c #949394",
"5X c #AC948C",
"6X c #B99C87",
"7X c #BCA58D",
"8X c #8C8DB0",
"9X c #B0AEAC",
"0X c #D0918A",
"qX c #F48B87",
"wX c #EC918D",
"eX c #D5AA88",
"rX c #C3AA98",
"tX c #CAB397",
"yX c #E9A896",
"uX c #CDB5AA",
"iX c #CDBDA8",
"pX c #F6ACA6",
"aX c #EDB5A8",
"sX c #F7BAB4",
"dX c #D3C1A9",
"fX c #D9C8B9",
"gX c #FAC6BA",
"hX c #F0CDBA",
"jX c #A8B3D6",
"kX c #97ADE2",
"lX c #A4BFF7",
"zX c #B8CAEE",
"xX c #DAD1CB",
"cX c #F6CAC6",
"vX c #FCCEC3",
"bX c #E3D7C7",
"nX c #F7D1CA",
"mX c #F1DAD3",
"MX c #EDE3D5",
"NX c #CBD0E7",
"BX c #CCDBF3",
"VX c #F6E9E7",
"CX c #F8F2ED",
"ZX c #EAECF1",
"AX c #F6F5F4",
"SX c #F7F8F7",
"DX c #F9F8F4",
"FX c #F9F9F9",
/* pixels */
",.,.,.,.,.<.N.V.C.C.C.C.C.I.r.t.i.u.i.u.t.t.w.:.:.O.` ` ` ` ' } >.,.,.,.,.,.,.,.,.,.,.,.,.,.,.,.,.,.",
",.,.,.X.,.<.N.V.V.C.C.C.Z., < , , , < 1 < < , , < < y -.` ` ' }  .,.,.,.,.,.,.,.,.,.,.,.,.<.,.,.,.,.",
",.,.,.,.X.<.<.B.V.Z.-.h +.E Y h.rXuXuXuXrXi.W R Y Y Y U x i i 6.6.3.,.,.,.,.,.,.<.<.<.<.<.<.<.<.<.<.",
",.,.,.,.,.<.<.<.<.r.3 1 H a.a.wXmXVXVXVXmXqXa.5.~ ! E L 5 4 4 4 u r.,.X.,.,.,.,.<.N.B.N.N.B.N.N.N.B.",
",.,.,.,.,.,.,.,.,.w.2 2 7.nXcXwXb.a.s.s.b.pXcXcXp.K K T W Q E E W U y 7.:.,.,.<.<.B.C.C.V.C.C.V.C.C.",
",.,.,.,.,.>. . .X.0.3 3 N xXNX0Xp.E E E 5.0XxXxX8.Z J T Q Q Q Q W L 5 7 r.,.,.<.N.B.C.C.C.C.C.C.C.C.",
",. .,.,.,. .} # @ @ . . # - - - % $ $ $ $ = - - # O $ 5 J K J K K T W E U e 7.A.<.V.C.C.C.C.C.C.C.C.",
",.,.,.,.,. .} +                                     o < Z Z Z A G W ! ! G 6 U i.Z.Z.C.C.C.C.C.C.C.C.",
",.,.,.e.#                                                   .   $ 5 F J E Q W 8 < y U.B.V.C.V.V.B.V.",
",.,.>.e.@                                                       o $ 1 6 L T L G 6 S u.i.G.<.<.<.N.<.",
",.,.>.e.X                                               .           . o 6 D F F D A 1 < i U.,.<.<.<.",
",.,.>.2.r.t.f         X : 4X4X4X4X3Xu.7.6.u.3X4X4X4X3Xu.6.6.&         o 6 D F F F D 1 < i U. .>.X.,.",
",.,.,.,.,. .[ +       # B SXAXAXSXVXaXb.m.sXCXSXFXFXVXpXn.b.9 o       o 6 A D F D 6 5 < i G.} ,.>.,.",
",.,.,.,.,.X.[ 0.7.9.9.9.5XSXAX9XC B 5XaXyXL.B V 9XAXVXpXn.n.p.8.6.;     $ $ y i.R.k.p.8.k.I.[ X.>.,.",
",.,.,.,.,.} [ ] ' ' ` ' D.AXDX*X= & 7.nXfXM O @ 4XFXVXpXm.m.x.x.d.9         : 5XhXgXm.v.wXsXeXA.>.,.",
",.,.,.,.,. .} [ [ K.t.9.6XDXDXC - # C cXsXM X @ 4XFXCXmXsXsXqXb.h.y         t 6XnXaXw.O.%.k.wXwXE.,.",
",.,.,.,.,. . .D.eXT.t.e.eXVXCX4Xb t i.sXaXN r r 5XAXCXmXvXvXR.h.8.r         t L.sXyX-.) %.f.b.qXyXX.",
",.,.,.,.,. .U.&.o.T.aXhXhXvXvXgXcXsXyXm.v.v.b.m.pXvXvXnXnXhX:     .         ; 8.m.z.O._ %.f.v.R.eX .",
",.,.,.,.,.,.T.&./ F.yXpXpXpXpXpXpXpXqXn.x.z.g.d.i.i.5XuXgXnXu.B z =   o r t U p.n.g.w.%.d.0XR.E.<.,.",
",.,.,.,.,.,.P.*._ w.g.n.m.v.b.m.n.n.n.n.x.:.O.g r o - u.vXvXgXcXrXm . O 8.b.v.x.v.v.v.v.qXI. .>.,.,.",
",.,.,.,.F.b b ; 9 u +.@.6.+.U 6.U @.6.U +.g y * +   + b u.u.rXpXwX8.u U z.v.z.8.@.@.h 6.y.:.,.,.,.,.",
",. ...t.@   .                                             O 8.z.v.x.n.m.x.n.8.r       . : D.,.,.,.,.",
",. . .} ] ' ' +                               . B 7XrXrXrXrXR.b.x.v.b.c.u w % $   + M A.,.,.,.,.,.,.",
",. .| [ [ r.D.+ . . o . . . . . O O O O O O O & i.vXgXgXgXsXqXn.x.v.z.l.3 .   . . : T.U.2.,.,.X. .,.",
",.>.} D.q.=.o.a a a a s a p a %.p.d.l.l.h.h.h.h.b.qXm.m.m.qXn.n.g.d.) O.$ . o $ > , 3 y N d.,.,.,.,.",
"U.A.A.K.F.;.*./ / O.*.-.*.) / d.d.z.z.g.z.j.j.j.j.j.j.j.j.z.s.s.f.%.^ ^ % $ $ % 1 4 1 1 i P.2. .,.,.",
"P.F.=.K.bXbXtX&._ K.xXbXtX( ) O.%.*.O.%.#.P 8 7 7 7 7 H L K L L L G G G D A Z A A D D A 6 e y 7.2.,.",
"L.=.{ K.MXCXfXq.=.6XbXMXiX=.$.$.$.6.%._ #.7 5 7 2 % 3 2 e S D J J J J J J J J J J J F F A 5 , i P.,.",
"L.-.{ K.MXFXSXDXDXrX;.*.J.DXFX8X'.k 4.~ ! 5.Q 5.4.k ~.(.~.c 4.~ ~ ~ ~ ~ ~ ~ ~ ~ ~ E J F A 5 < i 6X,.",
"H.&./ K.MXSXDXDXAXrX0.*.H.jXjX|.V l I R R h.y.y.{.).).k l w I R E W 1.1.1.1.1.W 1.1.F F A 5 < i 6X,.",
"K.=.&.P.MXDXDXAXFXrXq.$.C [.$Xl S D A A H l oX#X#X#X Xx F F F F G P O.) ) ( ( O.O._ S F 6 4 , i 6X,.",
"Y.U.P.7XP.P.P.P.P.3X3X|.V z z w 2 7 4.*X}.%X&X&X{.j z w 6 5 P P P ^ o.&.T.tXtXuXtXT.#.P H 5 , i 6X,.",
"X.,.,.U.=.( O.( ( |.-X>X|., < , < w }.<X<X<X1X-Xc > < < < < P ( / ) ) &.fXCXSXFXDXmX0.) P 5 < i 5X..",
"2.,.X.I.U.U.t.k V 8XzXNXjX.XXX.XXXXXkXBXBXBXBXBXkX|.|.M 0 q 6XdXfXfXfXfXCXFXSXSXSXCXxXfXrX=.a 7.eX..",
",.,.,.,.,.,.X.k k 8XNXZXNX<X1X1X1X2XzXFXFXFXSXSXzX,X-X}.) ( dXCXDXSXSXDXFXFXFXFXFXSXAXSXfXF.) r.<...",
",.,.,.U.q.*.-.h N n '.'.[.<X<X1X1X2XzXFXSXFXSXAXlX,X>Xu._ &.fXCXFXFXSXFXFXFXFXFXFXFXFXSXbXF.( r.,. .",
",.G.F.F.=.&.*.e.:.7.V v '.;X-X:X1X,XlXBXBXBXBXBXlX1X>X=Xu.9.rXfXbXVXSXSXDXFXSXSXFXAXxXfXdXK.F.J.A. .",
"B @   * / ) M.W.W.Y.*.g n k Q.oX:X1X,X,X,X,X,X,X1X1X<X1X,X,XC s q.tXSXDXDXDXSXSXFXbX;.{ t.dXE.N.N.N.",
"V.f . & r p &.Y.Y.M.{ o.7.c c  X$X$X:X1X1X1X1X1X1X1X:X:X;X-X}.C C 5XdXdXdXdXdXdXdX7Xh 9 N F...B.V.V.",
"C.f       . & ( { { ) / ) ^ o.n /.).$X<X1X1X1X1X1X1X:X;X+XOXOXOX.XB / &.( O.o.O.&.s O   - N N.B.C.C.",
"C.f       . & / ) ) ( ( ( / ( n (.^.[.&X&X;X;X;X&X&X&X#X+X+XOX@X[.{.n V M M M h ( s 9 9 t h M.V.C.C.",
"C.f       . & o.{ ) ) / o._ O.n (.^.].OX@X@X#X#X@XOXOX+XOX+X@XOX].'.!.!.Q.Q.k h ( o./ ) p &   - G.C.",
"C.V.N.F.@   o O O 9 / ) ) ) _ n k !.^.`.^.^.^.`.`._.^.].`.^.)._._._.~.~.Q.~.(.x ) O.{ ) q &   - K.V.",
"N.N.<.F.@         * a s ^ _ o.V '.'.'.).).).).).).).).(.~.~.Q.Q.(.Q.Q././.k V h *.{ / / p &   f U.N.",
"<.<.<.t.X         . O + 9 / / F.2.,.,.,.,.,.,.,.:.I.K. X~.Q.Q.Q.k n $.h h $.q.Y.W.Y.{ { p &   9.<.<.",
",.,.,.e.: # #         . & =.;.G.<.,.,.,.,.,.,.,.,.>.:.u.).).(.).v m a ^ s s *.Y.W.Y.&.{ p &   h 2. .",
",.,.,.2.A.A.I.+       . f S.V.N.,.,.,.,.,.,.,. . ...| | } ..2.:.F.m O O O O * a *.{ &.s p &   : J. .",
",.,.,.,...N.B.: = = # - 9.C.V.N.<.,.,.,.,.,.,. ...} [ ' ' ' [ | M.M # = @ @ ; f o./ p g g - = 9.,.,.",
",.,.,.,.,.<.N.V.C.C.C.C.C.C.V.N.<.,.,.,.,.,.,.>.| [ ` ` ` ` ' } >.>.,.,.,.,.D.:         - G.,.,.,.,.",
"2.X.,.,.,.<.N.V.C.C.C.C.C.C.V.N.<.,.,.X.,.,.,. .| ] ` ` ` ` ' } >.,.,.,.,.,. .r.d m m d V U.X.X.,.,."
};
