/* XPM */
static char *result[] = {
/* columns rows colors chars-per-pixel */
"50 50 226 2 ",
"   c #010000",
".  c #0B0101",
"X  c #04060A",
"o  c #140100",
"O  c #180703",
"+  c #191414",
"@  c #250101",
"#  c #260703",
"$  c #32160B",
"%  c #271515",
"&  c #36210D",
"*  c #29201F",
"=  c #3A2312",
"-  c #161A20",
";  c #091034",
":  c #3C112E",
">  c #1D2127",
",  c #262729",
"<  c #322F35",
"1  c #4C0001",
"2  c #490407",
"3  c #540101",
"4  c #5B0100",
"5  c #550807",
"6  c #4E1015",
"7  c #5D1819",
"8  c #650000",
"9  c #6C0000",
"0  c #6A090A",
"q  c #770505",
"w  c #7C0101",
"e  c #6A1212",
"r  c #651A19",
"t  c #4C2F18",
"y  c #58251A",
"u  c #6F290D",
"i  c #77300F",
"p  c #6C2716",
"a  c #653E19",
"s  c #7A3715",
"d  c #771335",
"f  c #5D2323",
"g  c #49372B",
"h  c #503633",
"j  c #682723",
"k  c #6B3632",
"l  c #74481A",
"z  c #4F4339",
"x  c #784924",
"c  c #2D3178",
"v  c #4A3048",
"b  c #702454",
"n  c #5F336A",
"m  c #543374",
"M  c #6E3269",
"N  c #524243",
"B  c #63494A",
"V  c #654A4D",
"C  c #67554F",
"Z  c #726055",
"A  c #6F586F",
"S  c #8C0102",
"D  c #870709",
"F  c #930001",
"G  c #9A0000",
"H  c #98080B",
"J  c #8E0513",
"K  c #8F1512",
"L  c #A30202",
"P  c #AB090A",
"I  c #B10A0B",
"U  c #BC0D0D",
"Y  c #BA1010",
"T  c #B81616",
"R  c #9C2419",
"E  c #833817",
"W  c #861628",
"Q  c #8A3537",
"!  c #B52221",
"~  c #AF3031",
"^  c #C61313",
"/  c #C71A1B",
"(  c #D21B1A",
")  c #CF201E",
"_  c #D01F25",
"`  c #DA2323",
"'  c #D22A2D",
"]  c #DB2929",
"[  c #E92C29",
"{  c #F22E2D",
"}  c #F7312F",
"|  c #E63537",
" . c #EB3434",
".. c #F53335",
"X. c #FC3333",
"o. c #8B4D15",
"O. c #8D5718",
"+. c #8C561D",
"@. c #925614",
"#. c #92561C",
"$. c #96591A",
"%. c #A14F00",
"&. c #A95707",
"*. c #AB5A00",
"=. c #B5630D",
"-. c #B8680D",
";. c #BC6B16",
":. c #B5691A",
">. c #B96E1F",
",. c #895723",
"<. c #89582A",
"1. c #955D25",
"2. c #8B4F3A",
"3. c #A15D2F",
"4. c #96632A",
"5. c #8E6638",
"6. c #946737",
"7. c #B56D2D",
"8. c #B97A3C",
"9. c #C07016",
"0. c #C2711C",
"q. c #CB7B1C",
"w. c #C57723",
"e. c #C57A2D",
"r. c #C27C36",
"t. c #93335D",
"y. c #B2304D",
"u. c #BC3F5D",
"i. c #D43848",
"p. c #935648",
"a. c #90524D",
"s. c #B2584E",
"d. c #896848",
"f. c #986948",
"g. c #8A6E55",
"h. c #987656",
"j. c #A36B4C",
"k. c #A97647",
"l. c #B67A44",
"z. c #B7724D",
"x. c #A67755",
"c. c #914676",
"v. c #8F7773",
"b. c #D96767",
"n. c #EF7472",
"m. c #D3831C",
"M. c #DD8D1C",
"N. c #E1911C",
"B. c #DB8F27",
"V. c #C9843A",
"C. c #DB9733",
"Z. c #E1962A",
"A. c #98815D",
"S. c #BB8249",
"D. c #B08757",
"F. c #B98856",
"G. c #998276",
"H. c #A8846B",
"J. c #B98B65",
"K. c #BA9268",
"L. c #A1867D",
"P. c #BA9778",
"I. c #CA8F4C",
"U. c #C48B54",
"Y. c #C8945A",
"T. c #C29363",
"R. c #C58D76",
"E. c #C59B78",
"W. c #172E8F",
"Q. c #1B2C8C",
"!. c #1A2C92",
"~. c #1C359B",
"^. c #1C389D",
"/. c #242982",
"(. c #24358A",
"). c #253898",
"_. c #1D3AA3",
"`. c #223BA3",
"'. c #2F4291",
"]. c #1F42A7",
"[. c #2547AB",
"{. c #314FA8",
"}. c #254BB0",
"|. c #2A52B6",
" X c #2B56BC",
".X c #3856BA",
"XX c #3963BD",
"oX c #4E4B92",
"OX c #625A89",
"+X c #755096",
"@X c #6A6292",
"#X c #5267B8",
"$X c #2E5EC4",
"%X c #345DC1",
"&X c #2E66CD",
"*X c #2D68CD",
"=X c #3661C4",
"-X c #3265CC",
";X c #3069CF",
":X c #2D67D3",
">X c #3166D2",
",X c #346CD3",
"<X c #396ED6",
"1X c #3B72D8",
"2X c #4C6FCF",
"3X c #4276DC",
"4X c #4477DC",
"5X c #457BE1",
"6X c #4C81E7",
"7X c #5485E8",
"8X c #548AEE",
"9X c #5A8AEE",
"0X c #5B8EF3",
"qX c #5E92F6",
"wX c #6492F5",
"eX c #6396FA",
"rX c #6897FA",
"tX c #6599FD",
"yX c #B8A08F",
"uX c #C39D81",
"iX c #F08C88",
"pX c #CFA48F",
"aX c #E4B9A3",
"sX c #E8C5AF",
"dX c #F5C9B9",
"fX c #F6CEC3",
/* pixels */
"0.0.0.0.0.0.m.M.N.N.N.N.N.N.M.m.0.>.0.0.0.0.0.9.=.&.%.%.%.%.*.=.;.0.0.0.0.0.0.0.0.0.0.0.0.0.0.0.0.0.",
"0.0.0.0.0.q.m.M.M.M.N.N.N.N.M.m.q.0.>.E 3 4 3 3 3 4 3 3 4 E *.=.;.;.0.0.0.0.0.0.0.0.0.0.0.0.0.0.0.0.",
"0.0.0.0.0.q.q.m.M.M.m.m.j.k p j p r w S S S S S S S S S S q e f j 7 7 f.0.>.0.0.0.q.q.q.q.q.q.q.q.q.",
"0.>.0.0.0.q.q.q.q.q.V.V.2.e 9 9 q D D P I I I I I I I I I H D q 0 8 4 a.e.r.0.0.q.m.m.m.M.m.m.m.m.m.",
"0.0.0.0.0.0.0.0.0.U.p 7 q S G ^  .[ [ { { { { { { { { { { { [ [ / P S D e r w.q.q.M.N.M.N.M.N.N.M.N.",
"0.;.0.0.0.;.;.8.l.f.e 9 D I ^ ` ..X.X.X.X.X.X.X.X.X.X.X.X.X.X.X.[ ^ I H 9 8 a.l.I.B.N.N.N.N.N.N.N.N.",
"0.0.0.0.0.;.8.p 3 9 S L ^  .X.} X.X.X.X.X.X.X.X.X.X.X.X.X.X.X.X.X.X...` G G w 4 5 8.N.M.N.N.N.N.N.N.",
"0.0.0.0.0.:.j.7 5 9 S L / } X.X.X.X.X.X.X.X.X.X.X.X.X.X.X.X.X.X.X.X...` L L w 4 2 z.N.N.N.N.N.N.N.N.",
"0.0.0.0.0.;.j.r 3 q F L ^  .X.X.X.X.X.X.X.X.X.X.X.X.X.X.X.X.X.X.X.X...` G G w 4 5 k.M.M.M.M.M.M.M.M.",
"0.>.0.0.0.;.x.7 3 9 F L ^ { } X.X.X.X.X.X.X.X.X.X.X.X.X.X.X.X.X.X.X.X.` L G w 4 5 j.q.q.q.m.q.q.m.q.",
"0.0.0.0.>.;.x.7 1 q F L ^ { X.X.X.X.X.X.X.X.X.X.X.X.X.X.X.X.X.X.X.X...` G G S 4 6 j.q.0.0.q.q.q.0.q.",
"0.0.0.0.0.:.x.7 3 9 F L ^ ..X.X.X.X.X.X.X.X.X.X.X.X.X.X.X.X.X.X.X.X.X.] L G w 4 5 j.;.;.;.:.;.;.0.0.",
"0.0.0.0.0.U.x.f 1 8 S G Y [  ...X.X.X.....X.X.X.X.X...X.X.X.X.X...{ [ _ G S 9 3 6 Z 8.l.=.&.-.;.9.0.",
"0.;.0.Y.d.o.l O   @ 1 3 q F L ( X.X.X.X.X.X.X.X.X.X.X.X.X.X.X.X.` P G w 4 3 @ .   & ,.1.S.*.=.:.9.0.",
"0.J.J.P.E.R.g.%   @ 3 3 8 9 w H T ^ ^ ^ ^ ^ ^ ^ ^ ^ ^ ^ ^ ^ ^ ^ P S w 8 4 1 @ . o h E.E.P.J.D.r.9.0.",
"J.f.O.l.aXdXyX>   O 2 2 1 1 1 9 S G G G F G G G G G G G G G G G w 3 1 1 1 1 @ . . B fXfXE.4.4.S.9.0.",
"R.f.1.7.n.iXx.+   . o o o O @ @ 4 9 8 9 9 9 9 9 9 9 9 9 9 9 9 9 3 @ o o O O .   . k iXiXs.$.4.F.;.0.",
"K.d.<.3.b.n.s.$             . @ 1 1 1 1 1 1 1 1 1 1 1 1 3 1 1 1 @ o .           o k n.n.z.1.6.U.9.0.",
"0.V.Y.E.x.1.x +               . . o . . . . . . o . . . . . . .                   t 3.3.J.I.-.;.9.0.",
"0.>.0.Y.x.x.d.= # = g g , .                                           + g g = * # z x.k.7.;.;.;.0.0.",
"0.0.0.;.;.;.Y.6.<.K.dXsXv.- X                                         N fXfXpX6.,.F.0.0.0.0.0.0.0.0.",
"0.0.;.;.=.=.>.S.E.P.K.J.x.v.v.<                                 , C v.v.P.J.E.uXE.V.0.0.0.0.0.0.0.0.",
"0.9.;.=.&.&.&.&.=.F.5.$.P.aXdXZ o                               B pXdXE.1.#.uXY.>.q.>.9.0.0.0.0.0.0.",
"0.0.-.&.%.%.:.K.H.5.u u Q a.g.a.a.Q 6 X                   # Q p.p.a.p.2.u e p.x.H.K.9.9.>.0.0.0.0.0.",
"0.9.=.=.%.%.P.6.1.i 5 5 4 4 9 ~ n.b.f X   . .       . .   = b.n.u.p 8 4 4 4 i o.,.J.;.;.;.0.0.>.;.0.",
"0.9.=.F.f.<.x 0 4 K '  . .| i.t.c (./.c m t.i.|  .i.y.n /.!.Q./.M i...|  . .R e 5 p 5.6.D.w.0.0.0.0.",
"0.Y.T.J.<.s E K D !  .X.{ [ ' M ).`.`.`.).c.u.u.u.i.c.oX`._._._.A i...X.X.X./ K K K E s H.K.I.e.0.0.",
"0.k.6.s 4 5 D ] ..X.X.} ( G S n XX*X-X&X&X:X-X>X>X-X,X-X$X:X:X>X+Xi.X.X.X.X..... .R 3 3 i o.6.T.0.0.",
"I.k.1.s 5 4 D ] X.[ ` ( U L J n XX*X3X3X5X5X4X4X4X5X5X5X5X5X>X>X+Xy._ _ ) ` [ .. .! 4 5 i o.4.K.;.0.",
"e.k.,.s 5 3 q | X.( L G G G J n XX,X7XqXeXtXrXrXrXtXrXrXtX9X>X&XA W G G G L / { ..! 4 1 i o.5.J.0.0.",
"0.Y.K.h.7 8 q T T I G S W m oX#X7X9XeXtXwX2X.X.X.X.X2X5XtXeX9X9X2XoXm b J G P Y T J 4 5 f.P.T.U.0.0.",
"0.0.0.T.k r e D F J J W M 2X,X7XrXeXrXtX9X%X_.).`.).{.5XtXtXtXrX7X3X2XoXd J J F S D e y z.0.0.0.0.0.",
"0.0.0.0.0.0.J.e 4 v oX=X4XwXwXrXtXtXtXtXtXeXwXwXwXrXrXrXtXtXtXtXtXeXwX5XXX#XM 7 6 a.e.e.9.0.0.0.0.0.",
"0.0.0.0.0.0.v.b 6 c %X,X4X0X0XqX0X0X0X0XqXeXtXtXrXtXrXwX0X0X0X0X0X0XwX7X-X>Xc : : j.0.0.0.0.0.0.0.0.",
"0.0.0.0.0.0.e.OX/.).%X&X*X,X,X,X,X,X,X,X1X8XtXtXtXtXwX4X,X,X,X,X,X-X>X,X&X&X[.(./.v.0.0.0.0.0.0.0.0.",
"0.0.0.0.0.0.0.OX!.`.-X>X<X2X4X3X5X1X,X*X1X6XtXtXtXtXqX3X&X,X1X1X4X3X3X3X&X&X}.~.).v.0.0.0.0.0.0.0.0.",
"0.0.0.0.0.0.0.OXW.[.&X,X5XeXeXtXtXqX5X*X,X8XtXtXtXtXeX1X-X1XqXtXtXtXtX8X*X&X}.~.Q.L.0.q.0.0.0.0.q.0.",
"q.q.q.q.0.0.0.OXW.}.:X:X6XeXtXtXtXqX5X;X<X8XtXtXtXtXqX3X,X1XqXtXtXtXtX8X*X*X[.).(.G.q.q.0.0.q.q.m.q.",
"N.M.q.q.0.0.0.OX!.[.=X>X3XwXeXeXqXqX5X;X,X6XeXeXtXtXqX3X&X<XqXeXeXtXeX7X&X$X|.[.(.L.M.q.q.0.q.q.M.M.",
"N.N.M.q.0.0.q.e.V.G.'._.|.;X,X1X<X<X*X*X;X,X<X3X9XeX0X3X&X*X,X<X,X,X<X%X~.~.I.Z.Z.N.N.q.q.0.q.M.M.N.",
"N.N.m.q.0.0.q.q.q.J.(.).[.&X&X&X*X-X*X*X&X&X$X-X4X7X7X4X-X&X*X&X;X;X=X|.W.~.B.N.N.N.M.m.q.0.q.m.N.N.",
"N.N.M.q.0.0.m.M.M.Y.).~.[.&X*X&X-X-X*X*X%X[.~.^.).~.]. X-X-X*X&X-X*X;X XW.W.B.N.N.N.M.m.q.0.q.M.N.N.",
"M.M.m.m.0.m.m.M.N.Y.oX'.{.|.}.|.|.|.|.|.[.^.Q.!.Q.Q.~.[.|.|.|.|.|.|..X{.'.'.N.N.N.N.N.q.q.0.q.m.M.M.",
"m.m.q.q.>.q.m.M.N.N.N.Z.@X(.Q.Q.Q.Q.Q.Q.Q.Q.Q.Q.Q.Q.Q.Q.Q.W.Q.!.Q.W.(.A q.m.N.N.N.N.N.B.q.0.q.m.m.q.",
"q.q.q.0.0.q.m.N.N.C.g.C h B V V B B V V N , ; ; ; ; ; v B B B C V B V C C Z A.N.N.N.M.m.q.0.0.q.q.q.",
";.0.>.0.>.q.m.N.Z.D.+ . y @.O.O.@.@.@.@.l &         O l O.@.O.O.$.@.@.a . . < I.N.M.M.m.0.0.0.0.0.0.",
"0.0.0.0.0.q.F.z > z l l l @.O.O.+.O.+.+.x & .       O a 1.@.O.O.,.O.@.+.l a z < , h.m.q.0.0.0.0.0.0.",
"0.0.0.0.>.m.h.+   & ,.+.,.O.+.,.,.,.+.,.x & X X X X O a ,.+.,.+.,.+.+.,.+.O.t O X d.q.q.0.0.0.0.0.0.",
"0.0.;.0.0.w.U.*     X . X X X . X .   X , S.0.;.-.&.3.z . X   .   .   . . . .   X Z w.0.0.0.0.0.0.0.",
"0.0.0.0.0.q.m.g.> > - - - + > , , , - - < S.0.9.-.=.*.d.> > > + - - - - - - , , < h.0.0.>.0.0.0.0.0."
};
