/* XPM */
static char *result[] = {
/* columns rows colors chars-per-pixel */
"50 50 232 2 ",
"   c #010000",
".  c #0B0402",
"X  c #0C0A0A",
"o  c #150805",
"O  c #16110C",
"+  c #181311",
"@  c #2C0302",
"#  c #390405",
"$  c #271716",
"%  c #2F1710",
"&  c #302718",
"*  c #0A103E",
"=  c #1E2125",
"-  c #262425",
";  c #2A2929",
":  c #342926",
">  c #3C3836",
",  c #460203",
"<  c #530103",
"1  c #580304",
"2  c #5F0F0F",
"3  c #680404",
"4  c #7A0607",
"5  c #6F0E10",
"6  c #7B191A",
"7  c #4C2D0F",
"8  c #502F14",
"9  c #633B12",
"0  c #5F1D2C",
"q  c #6C1D23",
"w  c #552B25",
"e  c #692725",
"r  c #792929",
"t  c #6E2E35",
"y  c #773735",
"u  c #74441C",
"i  c #5A4734",
"p  c #754C37",
"a  c #77533C",
"s  c #202346",
"d  c #5F3A54",
"f  c #554744",
"g  c #534F4B",
"h  c #544551",
"j  c #5D4651",
"k  c #645548",
"l  c #6F534D",
"z  c #7A5956",
"x  c #7A6558",
"c  c #694E78",
"v  c #797271",
"b  c #880202",
"n  c #990404",
"m  c #8E171A",
"M  c #A70E0F",
"N  c #B81717",
"B  c #912727",
"V  c #803C3B",
"C  c #AE2625",
"Z  c #CD191B",
"A  c #D12626",
"S  c #E8302E",
"D  c #F53A38",
"F  c #93431C",
"G  c #8B5719",
"H  c #8F5A1A",
"J  c #925719",
"K  c #91591A",
"L  c #A14F00",
"P  c #A45200",
"I  c #A95902",
"U  c #AE5E0D",
"Y  c #B05F0D",
"T  c #A85A10",
"R  c #B5640D",
"E  c #B8680D",
"W  c #B26714",
"Q  c #BC6A16",
"!  c #BF7016",
"~  c #8D5B27",
"^  c #925D23",
"/  c #975D2A",
"(  c #87493D",
")  c #885939",
"_  c #A65B2C",
"`  c #B55E37",
"'  c #95622C",
"]  c #8B6138",
"[  c #946531",
"{  c #976937",
"}  c #986C38",
"|  c #9B6D3C",
" . c #AE6D31",
".. c #C07016",
"X. c #C2711C",
"o. c #CB7B1C",
"O. c #F5403E",
"+. c #C37524",
"@. c #C4792B",
"#. c #C47E37",
"$. c #8D5248",
"%. c #A74A4A",
"&. c #A84B4A",
"*. c #AD5550",
"=. c #BB5453",
"-. c #B55856",
";. c #926F4D",
":. c #9C7244",
">. c #99774A",
",. c #A57748",
"<. c #B4744F",
"1. c #A47D53",
"2. c #8E766C",
"3. c #B87871",
"4. c #CC5252",
"5. c #EF4A4A",
"6. c #C7674C",
"7. c #E16D58",
"8. c #D27768",
"9. c #E96965",
"0. c #F16F6C",
"q. c #F77368",
"w. c #F5726A",
"e. c #EA7B77",
"r. c #F67774",
"t. c #FA7975",
"y. c #B6893A",
"u. c #D3831C",
"i. c #DC8C1C",
"p. c #E1911C",
"a. c #D68D2E",
"s. c #C9843B",
"d. c #DC9939",
"f. c #E19424",
"g. c #AB865B",
"h. c #B68F53",
"j. c #B6A058",
"k. c #97837A",
"l. c #AB8867",
"z. c #B88B67",
"x. c #AA8777",
"c. c #B69879",
"v. c #C68646",
"b. c #DA9C46",
"n. c #C89158",
"m. c #D3B15E",
"M. c #CB946C",
"N. c #E88275",
"B. c #F0CE6D",
"V. c #1C2D8D",
"C. c #1A2D91",
"Z. c #1C3195",
"A. c #1E379C",
"S. c #212F89",
"D. c #24328A",
"F. c #273489",
"G. c #213597",
"H. c #1E3CA2",
"J. c #374795",
"K. c #2749A9",
"L. c #394FA5",
"P. c #2953B9",
"I. c #2D5ABE",
"U. c #515093",
"Y. c #6B6E8B",
"T. c #646AA9",
"R. c #697BBB",
"E. c #2C5CC2",
"W. c #2F64CB",
"Q. c #346BD1",
"!. c #386DD3",
"~. c #386ED5",
"^. c #4C76D0",
"/. c #4377DD",
"(. c #487CE2",
"). c #5382DB",
"_. c #718DD2",
"`. c #5186EA",
"'. c #5387EA",
"]. c #5E91F6",
"[. c #6D97ED",
"{. c #6997F4",
"}. c #6395FA",
"|. c #6799FE",
" X c #6899FD",
".X c #74A2F7",
"XX c #938A8F",
"oX c #AF9288",
"OX c #A19793",
"+X c #A7A6A6",
"@X c #BCBAB8",
"#X c #CF948E",
"$X c #F28D89",
"%X c #EB9A96",
"&X c #F59896",
"*X c #D1A98D",
"=X c #C7A698",
"-X c #C9B59B",
";X c #EDA099",
":X c #CDBCA9",
">X c #D7B9A9",
",X c #EFB3AB",
"<X c #F6BAB7",
"1X c #DACAB6",
"2X c #DBCBB9",
"3X c #EBC2B5",
"4X c #F6C5BC",
"5X c #FAC9BC",
"6X c #96A6CD",
"7X c #87ACF6",
"8X c #8DB1F4",
"9X c #AAC6F7",
"0X c #DAD3C8",
"qX c #D3D3D3",
"wX c #E8CBC3",
"eX c #FCCEC2",
"rX c #E2D6C9",
"tX c #FBD1C3",
"yX c #E6DBD3",
"uX c #E5DDD4",
"iX c #FADCD3",
"pX c #E9E2DB",
"aX c #CBDBF7",
"sX c #E2DFE1",
"dX c #DFE0E1",
"fX c #D1E0F6",
"gX c #E9E9E8",
"hX c #F4ECEB",
"jX c #F5F3EF",
"kX c #ECF0F6",
"lX c #F4F4F3",
"zX c #F9F7F7",
/* pixels */
"X.X.X.X.Q o.u.i.p.p.p.p.p.p.i.u.o.! ! ! <.t 1 1 < 2 1 < < < ,.Y Q X.X.X.X.X.X.X.X.X.X.X.X.X.X.X.X.X.",
"X.X.X.X.+.+.u.i.p.i.p.p.i.p.i.u.o.! +. .v.B 4 5 e w q 0 5 5 V  .Q X.X.X.X.X.X.X.X.X.X.X.X.X.X.X.X.X.",
"X.X.X.! X.o.o.u.i.i.u.u.i.i.o.a.p < 1 1 5 A O.%X#.*XzXiXw.D Z 3 1 1 < s.X.+.+.X.o.o.o.o.o.o.o.o.o.o.",
"X.! X.X.X.o.o.o.o.o.o.o.o.o.s.6.r 3 3 m C 4.0.%XeX<XeX,Xt.9.4.m 4 3 3 <.v. .X.o.o.o.u.u.u.u.u.u.u.i.",
"X.X.X.X.X.X.X.X.X.X.X.X...+.e 3 b n M S 9.wXhX&X5.D D 9.<XjX&X5.S M b 4 3 p +.o.o.i.p.p.i.p.p.i.p.p.",
"Q X.X.X.X.Q Q Q Q Q Q #.y $.5 b M Z N m t 2.2.l m 6 m r z Y.z B m Z Z n b 6 y ' o.i.p.p.p.p.p.p.p.p.",
"X.X.X.X.X.Q R Y Y Y Y ) 1 3 b M A S C .                         # C S N n b 1 3 o.i.p.p.p.p.p.p.p.p.",
"X.X.X.X.X.Q Y P P P P ( < 1 b b 1 # o                           . o # 3 n b 1 5 u.i.p.p.p.p.p.p.p.p.",
"X.X.X.X.Q Q U L L L L ( < 1 b 4 @                                     < 4 4 1 < o.u.i.i.u.i.i.i.i.i.",
"X.X.X.Q X.Q U L L L L $.< , o . .                                     . . @ , < o.o.u.u.u.u.o.u.o.o.",
"X.X.X.X.X.Q Y P L P L $.< # .       X ; ; ; ; - % $ $ $ - - ; ; = X       o , < X.X.X.X.X.o.o.X.X.o.",
"X.X.X.X.X.Q Y P L P _ $.< , .       g dXgXgXsX;X9.9.9.e.<XgXgXgXqX>       o , < @.! Q Q Q Q Q Q X.X.",
"X.X.X.X.X.W Y L L 8.8.$.@ % t d z z OXzXdX+XXX#X&X&X&X$XoXXX@XgXhXk.x z y w # # 3.M.Y Y Y Y E Q ..X.",
"+.Q X.+.X.Q Y L T N.9.V X % 9.N.,XeXiXzX@X>   x tXtXtX>Xf   v dXhXiXeX$Xq.-.$ O *.w.$XT I I Y Q ..X.",
"X.X.X.Q X.Q T e.n.` _ w   : =X<X5XtXiXzX@X>   2.tXtXtX>Xf   v dXjXiXtX<X<XM.- . r _ 6.N.8.P Y R ..X.",
"X.X.X.X.X.Q R r.9._ G 7   : =X<X5XtXiXhX@Xf = 2.tXtXtX>Xj + v qXhXiXeXwX>XoX$   u H 6.w.t.L U R ..X.",
"X.X.X.X.X...Q r.9._ ~ 8   X ; f oXeX<X$X%X=X=X,X5XtXtX4X>X=X#X$X&X<X4X2.> = X . 9 G 6.0.r.L T R ..X.",
"X.X.X.X.X.X.X.t.9._ ~ 8     o : x.<X%Xr.$X<X4X4X5X5X5X5X5X5X;Xr.e.,X>Xl O .     u G =.r.e.P Y Q ..X.",
"X.Q X.X.X.X.X.X.@.N.9.y   : #X=Xk + O X w 4.t.t.r.t.t.t.t.t.%.$ o O $ 2.>XoX+ O *.9.$XY U U W Q ..X.",
"X.X.Q X.X.X.X...+.N.N.$.% i >X>Xg       $ y &.&.&.&.&.&.&.&.w o     . XXeX=Xw w -.$X! E Q Q Q Q X.X.",
"X.X.X.Q ........Q ..@.z.^ ,.,X>Xk                                   X 2.3X>X} ' s.! X.X.! X.X.X.X.Q ",
"X.X.Q Q R E Y R E Q ..+.m.c.z.z.x.2.k                           O k 2.c.z.z.n.n.+.! X.X.X.X.X.X.X.X.",
"X.Q Q Y I I I I Y R ..X.o.v.| } *XtXx.                          % #X5Xh.J 1.v.! ! ! ! X.X.Q X.X.X.X.",
"X.X.Q U P L P L U 1.| | | | ^ ^ | <.<.=.=.=.=.=.=.=.=.=.=.=.=.=.-.<.<.' J ' g.1.1.l.oX+.! +.X.X.X.X.",
"X...E U L L L L M.:.~ ^ ' ' H H K K ` 9.w.w.w.q.w.w.0.w.q.w.w.w.7._ H H ^ ^ | :.{ { oX#.Q X.X.X.X.X.",
"X...R U L L T ^ | pXlXzXlXrX| H H K K G K K K K J J J ~ J J J J H H ' ^ H g.uXjXjXjX-X[ ~ X.X.X.X.X.",
"X...R Y L L T ~ >.pXlXlXzXrXg.' ,.g.y.~ ] z $.( F F F F a z $.[ [ g.l.| ' g.pXlXlXzX=X[ / +.X.Q X.Q ",
"X...Q Y I I W [ >.pXlXjXlX0X| ,.1XlX:X' x T.^.d M n n m U.!.Y.] g.2XjXc.[ l.pXjXkXjX-X{ ] @.X.X.X.X.",
"X.! Q Q E Y +.[ ,.pXjXlXjX0Xg.| :XjX:X' ;.^.^.c 5 4 m q U.).Y.[ g.1XgXc.~ g.pXlXjXlX-X| / @.X.X.X.X.",
"X.X.X.X.....@.' ,.uXjXlXlX0X| | :XgX:X~ ;._.[.c 1 < 2 0 T..XXX] | 2XgXc.{ g.uXjXkXlX-X:.~ +.X.X.X.X.",
"X.X.X.X.! X.@.[ ,.uXgX1Xg.z.1X1XoXg.k._._.[. X_.R.R.R.R._.{.[._.XXx.g.*X2X:Xl.l.wXjX-X{ ~ X.Q X.X.X.",
"Q X.X.Q +.! +.{ g.2XuXc.H >.rX2Xc.[ k.7X.X|.|.|.|.|.|.|.|.|..X X_.2.} -XyX1X} ' 1XpX=X:.;.X.X.X.X.X.",
"+.X.X.X.X.X.X.X.#.;.~ H H H K | 1XkXlXzXfX7X|.|.|.|.|.|. X X9XkXkXkXjXc.[ K J J ^ ~ c.! ! ! +.! X.X.",
"X.X.X.X.X.X.X.X.#.1.{ $.p p p ;.:XzXlXzXfX7X|.|.|.|.|.|. X X9XkXzXzXlXoXa p p a ] } M.X.! +.Q +.X.X.",
"X.X.Q +.X.X.X.X.X.#.v.n.F.S.V.U.@XkXzXzXfX8X|.|.|.|.|. X X X9XkXzXlXlXR.F.S.F.F.n.v.X.X.Q X.+.X.X.X.",
"X.X.X.X.X.X.X.X.X.X.X.v.V.Z.H.P.6XfXfXfX9X8X|.|.|.|.|.|. X X8XaXfXaXaXR.K.A.V.Z.v.X.X.X.+.X.X.X.X.X.",
"X.X.o.X.X.X.X.X.X.X.X.v.V.A.W.Q.`.|.}.|.|.|.|.|.|.|.|.|.|.|. X X X X|.).W.P.A.Z.v.o.o.X.X.X...X.o.o.",
"u.o.o.+.X.X.X.X.X.X.X.h.V.A.E.Q.'.|.|.|.|.|.|.|.|. X|.|.|.|. X|. X X|.`.Q.E.A.D.a.u.o.o.+.X.o.o.o.o.",
"i.i.o.o.X.X.X.X.X.Q ! v.Z.G.E.Q.`.].|.|.|.|.|.}.}.}.}.}.|.|. X|. X|. X~.W.I.A.D.d.i.i.o.o.X.o.u.i.i.",
"p.p.i.o.X.X.X.o.X.+.o.o.s.z.A.H.I.Q.`.|.|.|.].`.~.~.~./.'. X|.|.].~.~.K.A.L.M.b.p.i.p.u.o.X.o.u.p.p.",
"p.p.u.u.+.! o.u.u.o.o.u.o.n.D.G.P.W.~.].].].]./.E.E.E.W.(.].].].].~.W.K.Z.L.b.p.p.p.p.u.o.X.o.i.p.p.",
"p.p.u.o.X.! u.i.i.i.i.i.i.b.S.G.I.W.~.~.Q.~.Q.K.Z.G.G.H.E.Q.Q.Q.Q.W.W.K.Z.J.b.p.p.p.p.u.o.X.o.u.p.p.",
"i.i.u.u.X.u.u.i.p.p.p.p.p.b.J.D.K.I.I.W.W.I.I.K.C.C.C.Z.K.E.E.E.E.I.I.K.F.J.d.p.p.p.i.u.o.X.o.u.p.i.",
"u.u.u.+.! X.u.i.p.p.p.p.p.p.i.n.J.C.V.S.V.V.V.V.C.C.C.V.V.D.V.V.V.V.D.h.o.u.p.p.p.p.p.o.o.X.o.o.u.u.",
"o.+.o.o.! s.u.i.p.p.p.p.p.d.k k i h h j j j h s * * * * > j j j j j f k i x f.p.p.p.p.u.o.X.X.o.+.X.",
"! ! ! ! ! ! u.i.p.p.p.p.p.b.& % u H H H K H ~ 7       o 9 H ^ J H H G 7 O ; d.f.p.p.i.u.o.X.X.X.X.X.",
"+.! +.! ! u.u.p.p.p.p.f.} g.g.j.} H H K H H H 7       o 9 H K K J H H y.j.g.;.:.u.u.o.o.X.X.X.X.X.X.",
"X.+.! X.W u.u.p.p.p.p.d.  & m.B.y.K ^ K K K H &       o 9 H H K J J G m.B.j.$   s.o.o.o.X.X.X.X.+.Q ",
"Q +.X.X.X.o.o.p.p.p.p.d.. . O O . . . . . . O 1.R U L  .i .   . . . . o O o     s.! ! +.! X.X.X.X.X.",
"X.X.X.X.Q +.o.p.p.p.p.d.- - = = = = = = = = - 1.R U P L ;.= = = = = = = = = - > @.! +.! X.X.! X.+.! "
};
