/* XPM */
static char *result[] = {
/* columns rows colors chars-per-pixel */
"50 50 76 1 ",
"  c #000100",
". c #030900",
"X c #190E02",
"o c #061200",
"O c #081600",
"+ c #031E00",
"@ c #1C1004",
"# c #2E1A04",
"$ c #341F07",
"% c #062200",
"& c #092601",
"* c #0F2D01",
"= c #112E01",
"- c #123001",
"; c #362107",
": c #382307",
"> c #5C340B",
", c #673B0C",
"< c #683C0F",
"1 c #0F4A00",
"2 c #194201",
"3 c #134E00",
"4 c #1D4A01",
"5 c #205402",
"6 c #096600",
"7 c #0B6D00",
"8 c #116F00",
"9 c #147201",
"0 c #177A01",
"q c #1A7C01",
"w c #276502",
"e c #A45C0C",
"r c #A75E13",
"t c #AD6519",
"y c #B76A15",
"u c #B36B19",
"i c #BA6C1B",
"p c #BC7319",
"a c #C06F18",
"s c #C1701C",
"d c #C2791A",
"f c #CB7B1C",
"g c #0D8B00",
"h c #1F8501",
"j c #108E00",
"k c #159400",
"l c #189701",
"z c #1D9D01",
"x c #228101",
"c c #248A01",
"v c #2B8B02",
"b c #329402",
"n c #369E03",
"m c #3A9D02",
"M c #1FA001",
"N c #22A301",
"B c #27A801",
"V c #2AAC02",
"C c #3EA203",
"Z c #3FA803",
"A c #2EB002",
"S c #32B402",
"D c #36BA03",
"F c #3ABD02",
"G c #43AC03",
"H c #3DC103",
"J c #41C603",
"K c #45CA03",
"L c #49CE03",
"P c #50CF04",
"I c #4ED404",
"U c #51D704",
"Y c #55DC04",
"T c #D2821C",
"R c #DC8C1C",
"E c #E0901C",
/* pixels */
"   ............ .... ..... .....o...............  ",
" -wwwwwwwwwwwwwwwwwwwwwwwwwwwwwwwwwwwwwwwwwwwwww- ",
".wIIIIUIIIIUIIIIIIUIIIIIIIIIIUUUYYYYYYYYUIIIIIIIw.",
".1zNMMNMMNMMNzNMNNzNMNzzNNzNMNNKYYYYYYYYHBMNMNMM1.",
" 3BBMjMNkMNjggggggggggggggzBBzkFYYYYYYYYDkgkBVVV3.",
".wUUFlFFMSHlgggggggggggggjBUUFzGYYYYYYYYDjgNIIUUw ",
".wYYIFVVDAMggggggggggggggjAYYHzHYYYYYYYYDjgBIYYYw.",
".wYYIJAVDAMggggggggggggggjAYYDkHYYYYYYYYDkgVIYYYw.",
".wYYHNDHBSHkgggggggggggggjAYYDlHYYYYYYYYDjgBUYYYw.",
".wYYIDAASABjgggggggggggggjAYYHlHYYYYYYYYDkgNUYYYw ",
".wYYYKVBHAljgggggggggggggjAYYDkHYYYYYYYYDkgBIYYYw.",
".wYYGNFFBSHlgggggggggggggjAYYHkHYYYYYYYYDkgBUYYYw.",
".wYYLSSSAABkgggggggggggggjAYYDlHYYYYYYYYDjgBIYYYw.",
".wYYUKVBHAlggggggggggggggjAYYHkHYYYYYYYYDkgMIYYYw.",
".wYYJNDFBDHkgggggggggggggjAYYFlHYYYYYYYYDkgBIYYYw.",
".wYYKASDAAAkgggggggggggggjAYYFkHYYYYYYYYDkgBYYYYw.",
".wYYIKVVFAzggggggggggggggjAYYDlHYYYYYYYYDkgBIYYYw.",
".wYYJBDDVDSkgggggggggggggjAYYHkHYYYYYYYYDkgBUYYYw ",
".wYYKBDDVSAkggggggggggggggAYYFlHYYYYYYYYDkgBIYYYw.",
".wYYULBBHAkggggggggggggggjAYYFkHYYYYYYYYDjgNUYYYw.",
".wYYKVDDVSAkgggggggggggggkVYYFlHYYYYYYYYDkgBIYYYw.",
".4CCv9vv0vb866666666666666xCCv9vCCCCGmCCv76qmCCC4 ",
" .OOo.oooOo..oo....o.o....oOOo.OOOOOooOOo..oOOOO. ",
"<,>X                                          @><<",
"iye#.=--*%%*%%%+++++++++%*-*%%*------*%+&=---O$rii",
"aae#2CGGZchnc777777777770CZZhhZGGGGGGv77xGGGG-;tss",
"aar#5PYIDAASMgggggggggggzKYINBUYYYYYUSggVUYYP5$tss",
"aar$5LYJNDKMjgggggggggggzKYINBUYYYYYUSjgVUYYP5$tss",
"aar$5PYUHAVDBgggggggggggzKYINVUYYYYYUSggVUYYP5$tss",
"aat$5PYIHAADMgggggggggggzKYIMBUYYYYYYSjgVUYYP5$tss",
"sst$5PYJBDHMkgggggggggggzKYINBUYYYYYYSjgVIYYP5$tss",
"sst$5PYUHAADNgggggggggggzKYIMVUYYYYYUAjgVUYYP5$tss",
"sst$5PYUHAVDBgggggggggggkKYIMVIYYYYYYAjgAIYYP5$tss",
"sst$5PYJVDHNlggggggggggglKYIzVUYYYYYYAggAIYYP5$tss",
"sst$5PYIHAADNgggggggggggzKYINVUYYYYYYAggVIYYP5$tss",
"sst$5PYUJABHVjggggggggggzKYIMVUYYYYYYSjgVUYYP5$tss",
"fsu;5PYKBDHNkgggggggggggzKYINBUYYYYYYSjgVIYYP5;uff",
"Tfi;5PYLDADAMgggggggggggzKYIMVUYYYYYYSggVUYYP5;iff",
"RRp;5PYUKANHVgggggggggggzKYINVIYYYYYYAggVUYYI5:sRR",
"EEd;5PYJBSHNkgggggggggggzKYINVIYYYYYYAjgVUYYI5:dEE",
"EEd;5PYLSSDVzgggggggggggzKYIMVUYYYYYYAjgVUYYP5:dRE",
"ERd;5PYUKABHBgggggggggggzKYINVUYYYYYUSggVUYYP5:dRE",
"RRd;5PYKASFBlgggggggggggzKYINBUYYYYYYSggVUYYP5:dEE",
"TTp;5PYKASDVzgggggggggggzKYINBUYYYYYUSjgVUYYP5$pTf",
"ffu;5PYYKABHVgggggggggggzKYIMBUYYYYYYSggVUYYP5;uff",
"sst$5PYLASDVzgggggggggggzKYINBUYYYYYUSjgVUYYP5$tss",
"sst$5LYKADDBlgggggggggggzKYIMVUYYYYYYSjgVUYYP5$tss",
"sst$5IYUIVMKAgggggggggggzKYIMVUYYYYYUAjjVUYYP5$tss",
"sat$5PYLSSSAzgggggggggggzKYPMVUYYYYYYSjgVUYYP5$tss",
"sst$5PYJMDKzggggggggggggzKYIMVUYYYYYYSggVIYYP5$tss"
};
