/* XPM */
static char *result[] = {
/* columns rows colors chars-per-pixel */
"50 50 61 1 ",
"  c #2A0C1B",
". c #2E101F",
"X c #34131E",
"o c #3A161E",
"O c #3E191F",
"+ c #2F1120",
"@ c #321323",
"# c #3A1721",
"$ c #3B1924",
"% c #351728",
"& c #37192A",
"* c #3A1B2D",
"= c #431C1F",
"- c #441D20",
"; c #481F20",
": c #401F2F",
"> c #401F30",
", c #472125",
"< c #4C2221",
"1 c #41202F",
"2 c #4E262B",
"3 c #512622",
"4 c #51262A",
"5 c #552C2E",
"6 c #5B2F2F",
"7 c #442130",
"8 c #4A2331",
"9 c #522631",
"0 c #562931",
"q c #5A2A31",
"w c #5E3030",
"e c #65352E",
"r c #763D26",
"t c #783F26",
"y c #753C2D",
"u c #793E2B",
"i c #622D32",
"p c #653131",
"a c #6C3531",
"s c #6E3A30",
"d c #703731",
"f c #753A31",
"g c #793D31",
"h c #7A4027",
"j c #7B412B",
"k c #7D4031",
"l c #84462F",
"z c #87482F",
"x c #8F4D2A",
"c c #914E2A",
"v c #94512E",
"b c #9C552F",
"n c #9E582E",
"m c #844530",
"M c #8F4D30",
"N c #914E30",
"B c #955130",
"V c #9C5530",
"C c #A2592E",
"Z c #AA5E2E",
"A c #AE612E",
/* pixels */
"AAAAAAAAAAAAAx;  3cZAAAAAAAAAAAc<  <cAZAAAZAZAAAAA",
"AACVVbCVVVCVvg-  <cZCVVVVCVVVVVu=  <cACbCbnCVVVbVN",
"ACmffffffffdp9#  <xCmffffffffdi9%  <xCzfffffffgaii",
"Abfiiiiiiiiq:$+  <xvfiiiiiiiii:@   <xvuiiiiiiiiq:*",
"AVfiiiiiiiiq>&+  <xbyiiiiiiii9>*+  <cVfiiiiiiiiq7*",
"AVfiiiiiiiiq>&+  <xbyiiiiiiii9>%+  <cbfiiiiiiii97*",
"AVfiiiiiiiiq>:+  <cbfiiiiiiiii>*+  <cbfiiiiiiiiq8*",
"Nmpqqqqq9iq9>&+  <tziqqqqqqqq9:*@  <uzaqq9qqqqqq>*",
"qq2>>>>:::::*%+  X999:::::::>::%+  @488>21111111**",
"***&&&****&-%@   +%%&%=:#:%%:%%%X   %*&&&&&&&***&*",
"+++++++X+++@XX    ++++  ++@+++++    X+++@+..X... X",
"                                             .    ",
"                                                  ",
";;3;;-X  X=<<=<<<<<3;<3=X   -;<<<<<<<<<<<=X  .==4<",
"ccNcct=  -rcNxxxczcxxxct=  =rccxxxcxxxxxxrO  =hxcc",
"AAnVNu=  ;cZCCvbCVCVVVvu=  3xZCVbbbbbbbbvj-  -xAbv",
"ACma64@  <cCkffffffffdi9o  3cCmfgfffgfgdi2#  <xbj6",
"AVf01*@  <xVfiiiiiiiiq:%X  ;cvdiiiiiiiiq7&.  <xc5*",
"AVf02&+  <xVfiiiiiiiiq::   <cvgiiiiiiii07&.  <cv6*",
"Anf07&+  <xVfiiiiiiiii>%+  ;cbgiiiiiiii07&.  <xMw*",
"Anfq1*X  <xVdiiiiiiii9>%X  ;xbfiiiiiiiiq7*+  <cM6*",
"Nzp9:*   -umaq0qqqqiq9::+  -rlpq00000qq87&   ,jj9*",
"qq77**.  X4q8788::::>::%   o4q8>77787771>&+  o20>*",
"&&&**@.   %*&&&&%%:%%:%@+  X@&**&&&&&&&&*%.   %&**",
"@.....     X@++++@X +@ X    +++++++.++..@     @ @@",
"                                                  ",
"                                                 +",
"<<<<<<<<<<<3<=    =;<<<<;33;;<;-   +=<<<<<<<<<<<,,",
"xxxxxcccxxccmr=  -jxxxccxxccxccr=  -rxxxcxxxxccccc",
"AZCVbvbbVVVNvu<  <cCCbvbvbbVVBNu; .<xZbbbVbbVVVNBN",
"ACmfdgyufdgae2X  <xClfgggdygddp2@  ;cCmgfgdfsgskw6",
"Abfiiiiiiii02%   3xbfiiiiiiiii:&X  <cbfiiiiiiww57*",
"ACfiiiiiiiiq7&+  ,cbfiiiiiiiiq>*X  -cVgpiiiiiiiq8*",
"Abfiiiiiiiiq7*   <xbfiiiiiiiiq>:   <cbfiiiiiiiiq8*",
"Abfiiiiiiiiq7&@  <xbgiiiiiiiiq>&X  ;cbgiiiiiiii01*",
"bzi00qq0qq08>&@  #uma000qqqqq9>&X  -jziqq0qq0qq91*",
"q0878777217:**   %202111>8>>>8>&   #208>8>8>72>***",
"*&&&&&&&&&**-%+  X%$****&&&&#*&#    @&&&&&&&&&*&**",
".+++++++++ @X+     . @..+++++++     ++++++++++X+.X",
"                                                  ",
"  .                .  .      .    . .  .        . ",
"<<<<<=.  @-<<<<<<<<<<<<$X  X-<<<<<<<<<<<<-o  X;,,,",
"ccvxxr-  =tcxMxxxxcxvccr=  OyxxxccxxxcxxMr$  =tcMc",
"AACbvj,  <cZCnVnbbbbbvbj-  <xACCvnnnbbbbNu=  ;xZVM",
"Anjsi2X  <xnmfdgfyfgddi4X  <xCmdjfdgfdgdw5o  <xcj5",
"Abd01&X  <xbdiiiiiiiiq>&.  <xndiiiiiiii07$   <ccw*",
"Abfq7&.  <xbfiiiiiiiiq2&.  <cVspiiiiiii07*@  ,cB6*",
"vze97*.  -hzpqqqqqqqq91*@  1jmpqqq9qqqq0>&   -rk5*",
"qq87>&+  %257777777777>&   %298777777787**+  %201*",
"*:****+  +**>****>*>****+  +***>**>*******+  %&*>*"
};
